<?xml version="1.0" encoding="UTF-8" standalone="no"?>
<!-- Created with Inkscape (http://www.inkscape.org/) -->
<svg
   xmlns:dc="http://purl.org/dc/elements/1.1/"
   xmlns:cc="http://creativecommons.org/ns#"
   xmlns:rdf="http://www.w3.org/1999/02/22-rdf-syntax-ns#"
   xmlns:svg="http://www.w3.org/2000/svg"
   xmlns="http://www.w3.org/2000/svg"
   xmlns:xlink="http://www.w3.org/1999/xlink"
   xmlns:sodipodi="http://sodipodi.sourceforge.net/DTD/sodipodi-0.dtd"
   xmlns:inkscape="http://www.inkscape.org/namespaces/inkscape"
   width="128"
   height="128"
   id="svg1307"
   sodipodi:version="0.32"
   inkscape:version="0.45+devel"
   version="1.0"
   sodipodi:docbase="/home/pinheiro/artwork/Oxygen/theme/svg/apps"
   sodipodi:docname="sidux-irc.svg"
   inkscape:output_extension="org.inkscape.output.svg.inkscape">
  <defs
     id="defs1309">
    <linearGradient
       id="linearGradient3106">
      <stop
         style="stop-color:#24acff;stop-opacity:1;"
         offset="0"
         id="stop3108" />
      <stop
         style="stop-color:#8eaac9;stop-opacity:0;"
         offset="1"
         id="stop3110" />
    </linearGradient>
    <linearGradient
       inkscape:collect="always"
       id="linearGradient3011">
      <stop
         style="stop-color:#6193cf;stop-opacity:1;"
         offset="0"
         id="stop3013" />
      <stop
         style="stop-color:#6193cf;stop-opacity:0;"
         offset="1"
         id="stop3015" />
    </linearGradient>
    <linearGradient
       inkscape:collect="always"
       id="linearGradient2965">
      <stop
         style="stop-color:#e8e8e8;stop-opacity:1;"
         offset="0"
         id="stop2967" />
      <stop
         style="stop-color:#e8e8e8;stop-opacity:0;"
         offset="1"
         id="stop2969" />
    </linearGradient>
    <linearGradient
       inkscape:collect="always"
       id="linearGradient2877">
      <stop
         style="stop-color:#fdfdfd;stop-opacity:1;"
         offset="0"
         id="stop2879" />
      <stop
         style="stop-color:#fdfdfd;stop-opacity:0;"
         offset="1"
         id="stop2881" />
    </linearGradient>
    <linearGradient
       inkscape:collect="always"
       xlink:href="#linearGradient2877"
       id="linearGradient2903"
       gradientUnits="userSpaceOnUse"
       gradientTransform="matrix(-0.963514,-8.169758e-2,-7.106383e-2,0.899186,131.10748,3.908005)"
       x1="71.137604"
       y1="-45.176449"
       x2="71.137604"
       y2="85.008018" />
    <linearGradient
       inkscape:collect="always"
       xlink:href="#linearGradient2877"
       id="linearGradient2905"
       gradientUnits="userSpaceOnUse"
       gradientTransform="matrix(-0.963514,-8.169758e-2,-7.106383e-2,0.899186,131.10748,3.908005)"
       x1="71.137604"
       y1="-45.176449"
       x2="71.137604"
       y2="85.008018" />
    <linearGradient
       inkscape:collect="always"
       xlink:href="#linearGradient2965"
       id="linearGradient2971"
       x1="13.380353"
       y1="96.249008"
       x2="24.503779"
       y2="105.43793"
       gradientUnits="userSpaceOnUse"
       gradientTransform="matrix(-0.999882,-1.59711e-2,-1.536206e-2,1.039523,129.18595,-3.554603)" />
    <radialGradient
       inkscape:collect="always"
       xlink:href="#linearGradient2965"
       id="radialGradient2979"
       cx="6.8621049"
       cy="111.5335"
       fx="6.8621049"
       fy="111.5335"
       r="8.6354055"
       gradientTransform="matrix(-1.358425,-2.169809e-2,-1.224827e-2,0.828819,131.31806,18.69657)"
       gradientUnits="userSpaceOnUse" />
    <radialGradient
       inkscape:collect="always"
       xlink:href="#linearGradient3011"
       id="radialGradient3017"
       cx="-7.7906528"
       cy="315.84476"
       fx="-7.7906528"
       fy="315.84476"
       r="63.988658"
       gradientTransform="matrix(-0.999882,-1.59711e-2,-6.61782e-3,0.447816,37.002985,-29.91161)"
       gradientUnits="userSpaceOnUse" />
    <radialGradient
       inkscape:collect="always"
       xlink:href="#linearGradient3011"
       id="radialGradient3021"
       gradientUnits="userSpaceOnUse"
       gradientTransform="matrix(-0.680003,-1.086166e-2,-6.61782e-3,0.447816,40.887375,-29.84956)"
       cx="-12.143297"
       cy="312.47681"
       fx="-12.143297"
       fy="312.47681"
       r="63.988658" />
    <radialGradient
       inkscape:collect="always"
       xlink:href="#linearGradient3011"
       id="radialGradient3029"
       gradientUnits="userSpaceOnUse"
       gradientTransform="matrix(-0.192656,0.482784,1.219161,0.525853,-171.34771,-34.1805)"
       cx="89.216011"
       cy="196.43195"
       fx="82.953209"
       fy="192.42668"
       r="63.988658" />
    <radialGradient
       inkscape:collect="always"
       xlink:href="#linearGradient3011"
       id="radialGradient3091"
       gradientUnits="userSpaceOnUse"
       gradientTransform="matrix(-0.401036,0,3.430127e-4,0.183417,67.087125,47.11596)"
       cx="-93.689613"
       cy="377.23575"
       fx="-141.14726"
       fy="378.3584"
       r="63.988658" />
    <radialGradient
       inkscape:collect="always"
       xlink:href="#linearGradient3011"
       id="radialGradient3093"
       gradientUnits="userSpaceOnUse"
       gradientTransform="matrix(-2.22415,-0.595959,-0.114167,0.433073,56.939775,-32.02693)"
       cx="-9.1384687"
       cy="303.95941"
       fx="-9.1384687"
       fy="303.95941"
       r="63.988658" />
    <radialGradient
       inkscape:collect="always"
       xlink:href="#linearGradient3011"
       id="radialGradient3095"
       gradientUnits="userSpaceOnUse"
       gradientTransform="matrix(-0.941359,-0.543494,-0.223192,0.38829,105.38798,-17.71688)"
       cx="-12.143297"
       cy="312.47681"
       fx="-12.143297"
       fy="312.47681"
       r="63.988658" />
    <linearGradient
       inkscape:collect="always"
       xlink:href="#linearGradient2965"
       id="linearGradient3097"
       gradientUnits="userSpaceOnUse"
       x1="13.380353"
       y1="96.249008"
       x2="24.503779"
       y2="105.43793"
       gradientTransform="matrix(-0.999882,-1.59711e-2,-1.536206e-2,1.039523,129.18595,-3.554603)" />
    <radialGradient
       inkscape:collect="always"
       xlink:href="#linearGradient3011"
       id="radialGradient3099"
       gradientUnits="userSpaceOnUse"
       gradientTransform="matrix(-0.680003,-1.086166e-2,-6.61782e-3,0.447816,40.887375,-29.84956)"
       cx="-12.143297"
       cy="312.47681"
       fx="-12.143297"
       fy="312.47681"
       r="63.988658" />
    <radialGradient
       inkscape:collect="always"
       xlink:href="#linearGradient3106"
       id="radialGradient3112"
       cx="252.65891"
       cy="9.9962063"
       fx="252.65891"
       fy="9.9962063"
       r="61.75"
       gradientTransform="matrix(-0.996247,-8.654392e-2,-2.721966e-2,0.313336,318.74009,87.45488)"
       gradientUnits="userSpaceOnUse" />
    <linearGradient
       inkscape:collect="always"
       xlink:href="#linearGradient2877"
       id="linearGradient1976"
       gradientUnits="userSpaceOnUse"
       gradientTransform="matrix(-0.963514,-8.169758e-2,-7.106383e-2,0.899186,131.08385,3.691475)"
       x1="73.756706"
       y1="-8.2497177"
       x2="65.631966"
       y2="101.90899" />
    <radialGradient
       inkscape:collect="always"
       xlink:href="#linearGradient3011"
       id="radialGradient1982"
       gradientUnits="userSpaceOnUse"
       gradientTransform="matrix(-2.22415,-0.595959,-0.114167,0.433073,56.939775,-32.02693)"
       cx="-7.2539577"
       cy="311.01965"
       fx="-7.2539577"
       fy="311.01965"
       r="63.988658" />
    <filter
       id="filter7576"
       inkscape:collect="always">
      <feGaussianBlur
         id="feGaussianBlur7578"
         stdDeviation="1.5079688"
         inkscape:collect="always" />
    </filter>
    <linearGradient
       id="linearGradient2315-800-211-797-571-358-772-92">
      <stop
         style="stop-color:#ffffff;stop-opacity:1;"
         offset="0"
         id="stop20619" />
      <stop
         style="stop-color:#b1b1b1;stop-opacity:1;"
         offset="1"
         id="stop20621" />
    </linearGradient>
    <linearGradient
       id="linearGradient9274-828-181-250-454-259-451-773"
       inkscape:collect="always">
      <stop
         id="stop20625"
         offset="0"
         style="stop-color:#ffffff;stop-opacity:1;" />
      <stop
         id="stop20627"
         offset="1"
         style="stop-color:#ffffff;stop-opacity:0;" />
    </linearGradient>
    <linearGradient
       id="linearGradient9274-166-826-779-471-655-331-795"
       inkscape:collect="always">
      <stop
         id="stop20631"
         offset="0"
         style="stop-color:#ffffff;stop-opacity:1;" />
      <stop
         id="stop20633"
         offset="1"
         style="stop-color:#ffffff;stop-opacity:0;" />
    </linearGradient>
    <linearGradient
       id="linearGradient7441"
       inkscape:collect="always">
      <stop
         id="stop7443"
         offset="0"
         style="stop-color:#808080;stop-opacity:1;" />
      <stop
         id="stop7445"
         offset="1"
         style="stop-color:#808080;stop-opacity:0;" />
    </linearGradient>
    <radialGradient
       r="77.78125"
       fy="37.536674"
       fx="-419.27335"
       cy="37.536674"
       cx="-419.27335"
       gradientTransform="matrix(1.4250061,0.101935,-2.7896339e-2,0.6270518,660.93231,34.507442)"
       gradientUnits="userSpaceOnUse"
       id="radialGradient2493"
       xlink:href="#linearGradient9274-166-826-779-471-655-331-795"
       inkscape:collect="always" />
    <radialGradient
       r="77.784615"
       fy="188.62517"
       fx="-431.58975"
       cy="188.62517"
       cx="-431.58975"
       gradientTransform="matrix(0.9031289,9.5506185e-4,-2.0070307e-3,0.7083064,432.44756,-29.818047)"
       gradientUnits="userSpaceOnUse"
       id="radialGradient2485"
       xlink:href="#linearGradient2315-800-211-797-571-358-772-92"
       inkscape:collect="always" />
    <radialGradient
       r="77.78125"
       fy="37.536674"
       fx="-419.27335"
       cy="37.536674"
       cx="-419.27335"
       gradientTransform="matrix(1.4250061,0.101935,-2.7896339e-2,0.6270518,660.93231,34.507442)"
       gradientUnits="userSpaceOnUse"
       id="radialGradient2478"
       xlink:href="#linearGradient9274-828-181-250-454-259-451-773"
       inkscape:collect="always" />
    <radialGradient
       r="43.864159"
       fy="55.719162"
       fx="48.328632"
       cy="55.719162"
       cx="48.328632"
       gradientTransform="matrix(1.8230552,-1.410014e-3,1.4116902e-3,1.8252221,-40.151206,-45.569854)"
       gradientUnits="userSpaceOnUse"
       id="radialGradient2463"
       xlink:href="#linearGradient7441"
       inkscape:collect="always" />
    <radialGradient
       inkscape:collect="always"
       xlink:href="#linearGradient3011"
       id="radialGradient3525"
       gradientUnits="userSpaceOnUse"
       gradientTransform="matrix(-0.401036,0,3.430127e-4,0.183417,67.087125,47.11596)"
       cx="-93.689613"
       cy="377.23575"
       fx="-141.14726"
       fy="378.3584"
       r="63.988658" />
  </defs>
  <sodipodi:namedview
     id="base"
     pagecolor="#ffffff"
     bordercolor="#666666"
     borderopacity="1.0"
     inkscape:pageopacity="0.0"
     inkscape:pageshadow="2"
     inkscape:zoom="4.3862716"
     inkscape:cx="51.015847"
     inkscape:cy="56.84784"
     inkscape:current-layer="layer1"
     showgrid="true"
     inkscape:document-units="px"
     inkscape:grid-bbox="true"
     guidetolerance="0.1px"
     showguides="true"
     inkscape:guide-bbox="true"
     inkscape:window-width="1400"
     inkscape:window-height="980"
     inkscape:window-x="0"
     inkscape:window-y="0">
    <sodipodi:guide
       orientation="horizontal"
       position="32.487481"
       id="guide2204" />
    <sodipodi:guide
       orientation="horizontal"
       position="54.944158"
       id="guide2893" />
    <inkscape:grid
       type="xygrid"
       id="grid4090" />
  </sodipodi:namedview>
  <metadata
     id="metadata1312">
    <rdf:RDF>
      <cc:Work
         rdf:about="">
        <dc:format>image/svg+xml</dc:format>
        <dc:type
           rdf:resource="http://purl.org/dc/dcmitype/StillImage" />
        <cc:license
           rdf:resource="http://creativecommons.org/licenses/GPL/2.0/" />
        <dc:contributor>
          <cc:Agent>
            <dc:title>Oxygen team</dc:title>
          </cc:Agent>
        </dc:contributor>
        <dc:title></dc:title>
        <dc:date></dc:date>
        <dc:creator>
          <cc:Agent>
            <dc:title></dc:title>
          </cc:Agent>
        </dc:creator>
        <dc:rights>
          <cc:Agent>
            <dc:title></dc:title>
          </cc:Agent>
        </dc:rights>
        <dc:publisher>
          <cc:Agent>
            <dc:title></dc:title>
          </cc:Agent>
        </dc:publisher>
        <dc:identifier></dc:identifier>
        <dc:source></dc:source>
        <dc:relation></dc:relation>
        <dc:language></dc:language>
        <dc:subject>
          <rdf:Bag />
        </dc:subject>
        <dc:coverage></dc:coverage>
        <dc:description></dc:description>
      </cc:Work>
      <cc:License
         rdf:about="http://creativecommons.org/licenses/LGPL/2.1/">
        <cc:permits
           rdf:resource="http://web.resource.org/cc/Reproduction" />
        <cc:permits
           rdf:resource="http://web.resource.org/cc/Distribution" />
        <cc:requires
           rdf:resource="http://web.resource.org/cc/Notice" />
        <cc:permits
           rdf:resource="http://web.resource.org/cc/DerivativeWorks" />
        <cc:requires
           rdf:resource="http://web.resource.org/cc/ShareAlike" />
        <cc:requires
           rdf:resource="http://web.resource.org/cc/SourceCode" />
      </cc:License>
    </rdf:RDF>
  </metadata>
  <g
     id="layer1"
     inkscape:label="Layer 1"
     inkscape:groupmode="layer">
    <path
       sodipodi:nodetypes="ccc"
       id="path2276"
       d="M 50.892799,3.2812959 L 50.892799,0.48658747 L 50.892799,3.2812959 z "
       style="fill:#ffffff;fill-opacity:0.75688076;fill-rule:nonzero;stroke:none;stroke-width:0.5;stroke-linecap:round;stroke-linejoin:round;stroke-miterlimit:4;stroke-dasharray:none;stroke-dashoffset:4;stroke-opacity:1" />
    <path
       style="opacity:1;fill:#000000;fill-opacity:1;fill-rule:nonzero;stroke:none;stroke-width:1.60000002;stroke-linecap:round;stroke-linejoin:round;stroke-miterlimit:4;stroke-dasharray:none;stroke-dashoffset:4;stroke-opacity:1"
       d="M 49.50925,6.6364475 C 55.499132,5.7292068 61.790332,5.5859636 68.204696,6.3282134 C 102.41466,10.286878 127.5549,37.700636 124.35914,67.550849 C 123.08657,79.437449 117.50584,89.933665 109.09089,97.998925 C 112.48833,105.98215 118.46598,111.75209 127.35397,112.89191 C 113.30301,118.13353 97.153142,115.25264 85.455535,111.79993 C 76.583894,114.60838 66.787671,115.6435 56.625137,114.46752 C 22.415208,110.50886 -2.7660224,83.063752 0.42972772,53.213543 C 3.0262876,28.960251 23.553098,10.56782 49.50925,6.6364475 z"
       id="path1969" />
    <path
       style="opacity:0.23360656;fill:url(#radialGradient3021);fill-opacity:1;fill-rule:nonzero;stroke:none;stroke-width:1.60000002;stroke-linecap:round;stroke-linejoin:round;stroke-miterlimit:4;stroke-dasharray:none;stroke-dashoffset:4;stroke-opacity:1"
       d="M -0.2345122,55.654962 C 0.024047802,83.280481 33.191331,95.661139 47.078026,99.768306 C 60.850225,103.84161 74.872138,103.86714 84.713397,100.90657 C 95.332333,104.04089 107.46009,115.01737 120.51619,111.56068 C 121.75152,111.94884 123.03695,112.25912 124.40997,112.4352 C 110.35902,117.67682 96.72142,114.21253 85.023808,110.75981 C 76.152165,113.56825 66.362401,114.5947 56.199868,113.41872 C 23.332478,109.61541 -1.1936222,84.121168 -0.2345122,55.654962 z M 121.68285,62.222815 C 121.67391,63.831941 121.59755,65.46557 121.42336,67.092583 C 120.18559,78.654155 114.8587,88.876946 106.82569,96.850227 C 106.60436,96.389849 106.39302,95.919565 106.19016,95.442887 C 114.60509,87.377625 120.18152,76.900136 121.45409,65.013537 C 121.55396,64.080713 121.63774,63.150232 121.68285,62.222815 z"
       id="path3031"
       sodipodi:nodetypes="czccccsccsccsc" />
    <path
       sodipodi:nodetypes="czccccsccsccsc"
       id="path3027"
       d="M -0.2345122,55.654962 C 0.024047802,83.280481 35.19023,103.69845 56.307402,106.14206 C 77.424575,108.58567 76.259699,106.29159 85.131342,103.48316 C 95.750278,106.61748 107.46009,115.01737 120.51619,111.56068 C 121.75152,111.94884 123.03695,112.25912 124.40997,112.4352 C 110.35902,117.67682 96.72142,114.21253 85.023808,110.75981 C 76.152165,113.56825 66.362401,114.5947 56.199868,113.41872 C 23.332478,109.61541 -1.1936222,84.121168 -0.2345122,55.654962 z M 121.68285,62.222815 C 121.67391,63.831941 121.59755,65.46557 121.42336,67.092583 C 120.18559,78.654155 114.8587,88.876946 106.82569,96.850227 C 106.60436,96.389849 106.39302,95.919565 106.19016,95.442887 C 114.60509,87.377625 120.18152,76.900136 121.45409,65.013537 C 121.55396,64.080713 121.63774,63.150232 121.68285,62.222815 z"
       style="opacity:0.09836067;fill:url(#radialGradient3029);fill-opacity:1;fill-rule:nonzero;stroke:none;stroke-width:1.60000002;stroke-linecap:round;stroke-linejoin:round;stroke-miterlimit:4;stroke-dasharray:none;stroke-dashoffset:4;stroke-opacity:1" />
    <path
       style="opacity:1;fill:url(#linearGradient2905);fill-opacity:1;fill-rule:nonzero;stroke:none;stroke-width:1.60000002;stroke-linecap:round;stroke-linejoin:round;stroke-miterlimit:4;stroke-dasharray:none;stroke-dashoffset:4;stroke-opacity:1"
       d="M 64.87222,9.4775282 C 66.950937,9.6521855 69.098238,9.9279328 71.203753,10.297265 C 100.08116,15.36272 120.40301,37.146607 117.96942,59.692897 C 118.86977,37.96397 98.94154,17.441951 71.026094,12.54523 C 68.920579,12.175898 66.773278,11.900152 64.694559,11.725493 C 61.230046,11.434399 57.859425,11.41121 54.533034,11.627655 C 31.469953,13.128349 12.459248,26.418558 8.9727375,45.443968 C 8.8295576,46.225316 8.7269276,47.011191 8.6397876,47.791918 C 8.7081876,46.262802 8.8691975,44.730571 9.1503976,43.196005 C 12.636908,24.170593 31.64761,10.880384 54.710693,9.3796903 C 58.037084,9.1632434 61.407705,9.1864337 64.87222,9.4775282 z"
       id="path2885" />
    <path
       style="opacity:1;fill:url(#linearGradient2903);fill-opacity:1;fill-rule:nonzero;stroke:none;stroke-width:1.60000002;stroke-linecap:round;stroke-linejoin:round;stroke-miterlimit:4;stroke-dasharray:none;stroke-dashoffset:4;stroke-opacity:1"
       d="M 64.872746,9.470887 C 66.951463,9.6455432 69.098763,9.9212915 71.204278,10.290627 C 99.577722,15.267682 119.70648,36.386708 118.09249,58.508559 C 119.14364,36.694681 99.151474,16.047585 71.137655,11.133614 C 69.032141,10.764279 66.88484,10.48853 64.806122,10.313876 C 61.341607,10.02278 57.973208,9.9714877 54.646817,10.187937 C 31.583726,11.688633 12.573038,24.978838 9.0865175,44.004251 C 8.9691975,44.644413 8.8664875,45.29086 8.7868976,45.930707 C 8.8778975,45.018627 8.9836075,44.102478 9.1509076,43.189364 C 12.637428,24.163952 31.64813,10.873746 54.711218,9.373049 C 58.037608,9.1566021 61.408231,9.1797935 64.872746,9.470887 z"
       id="path2893" />
    <path
       sodipodi:nodetypes="czccccsccsccsc"
       id="path3019"
       d="M -0.2345122,55.654962 C 0.024047802,83.280481 24.084008,102.21875 45.478978,107.68396 C 66.909511,113.15826 75.243997,109.5623 85.085256,106.60172 C 95.704192,109.73605 107.46009,115.01737 120.51619,111.56068 C 121.75152,111.94884 123.03695,112.25912 124.40997,112.4352 C 110.35902,117.67682 96.72142,114.21253 85.023808,110.75981 C 76.152165,113.56825 66.362401,114.5947 56.199868,113.41872 C 23.332478,109.61541 -1.1936222,84.121168 -0.2345122,55.654962 z M 121.68285,62.222815 C 121.67391,63.831941 121.59755,65.46557 121.42336,67.092583 C 120.18559,78.654155 114.8587,88.876946 106.82569,96.850227 C 106.60436,96.389849 106.39302,95.919565 106.19016,95.442887 C 114.60509,87.377625 120.18152,76.900136 121.45409,65.013537 C 121.55396,64.080713 121.63774,63.150232 121.68285,62.222815 z"
       style="opacity:0.23360656;fill:url(#radialGradient3099);fill-opacity:1;fill-rule:nonzero;stroke:none;stroke-width:1.60000002;stroke-linecap:round;stroke-linejoin:round;stroke-miterlimit:4;stroke-dasharray:none;stroke-dashoffset:4;stroke-opacity:1" />
    <path
       style="opacity:1;fill:url(#radialGradient3091);fill-opacity:1;fill-rule:nonzero;stroke:none;stroke-width:1.60000002;stroke-linecap:round;stroke-linejoin:round;stroke-miterlimit:4;stroke-dasharray:none;stroke-dashoffset:4;stroke-opacity:1"
       d="M -0.2345122,55.654962 C 0.024047802,83.280481 34.030042,98.300141 45.907754,101.81312 C 57.714734,105.30519 75.214809,111.53738 85.056068,108.57682 C 95.675004,111.71115 107.46009,115.01737 120.51619,111.56068 C 121.75152,111.94884 123.03695,112.25912 124.40997,112.4352 C 110.35902,117.67682 96.72142,114.21253 85.023808,110.75981 C 76.152165,113.56825 66.362401,114.5947 56.199868,113.41872 C 23.332478,109.61541 -1.1936222,84.121168 -0.2345122,55.654962 z M 121.68285,62.222815 C 121.67391,63.831941 121.59755,65.46557 121.42336,67.092583 C 120.18559,78.654155 114.8587,88.876946 106.82569,96.850227 C 106.60436,96.389849 106.39302,95.919565 106.19016,95.442887 C 114.60509,87.377625 120.18152,76.900136 121.45409,65.013537 C 121.55396,64.080713 121.63774,63.150232 121.68285,62.222815 z"
       id="path3089"
       sodipodi:nodetypes="czccccsccsccsc" />
    <path
       style="opacity:1;fill:url(#radialGradient3017);fill-opacity:1;fill-rule:nonzero;stroke:none;stroke-width:1.60000002;stroke-linecap:round;stroke-linejoin:round;stroke-miterlimit:4;stroke-dasharray:none;stroke-dashoffset:4;stroke-opacity:1"
       d="M -0.2345122,55.654962 C 0.024047802,83.280481 24.143418,108.66795 56.21523,112.37919 C 66.377763,113.55518 76.167527,112.52873 85.03917,109.72029 C 95.658105,112.85462 107.46009,115.01737 120.51619,111.56068 C 121.75152,111.94884 123.03695,112.25912 124.40997,112.4352 C 110.35902,117.67682 96.72142,114.21253 85.023808,110.75981 C 76.152165,113.56825 66.362401,114.5947 56.199868,113.41872 C 23.332478,109.61541 -1.1936222,84.121168 -0.2345122,55.654962 z M 121.68285,62.222815 C 121.67391,63.831941 121.59755,65.46557 121.42336,67.092583 C 120.18559,78.654155 114.8587,88.876946 106.82569,96.850227 C 106.60436,96.389849 106.39302,95.919565 106.19016,95.442887 C 114.60509,87.377625 120.18152,76.900136 121.45409,65.013537 C 121.55396,64.080713 121.63774,63.150232 121.68285,62.222815 z"
       id="path2960"
       sodipodi:nodetypes="csccccsccsccsc" />
    <path
       style="opacity:0.61065572;fill:url(#linearGradient2971);fill-opacity:1;fill-rule:evenodd;stroke:none;stroke-width:1px;stroke-linecap:butt;stroke-linejoin:miter;stroke-opacity:1"
       d="M 124.07484,113.19493 C 116.31884,110.89192 111.36097,106.86692 107.86548,98.555414 L 103.70552,100.91103 C 106.31783,106.01655 112.87392,112.90434 124.07484,113.19493 z"
       id="path2963"
       sodipodi:nodetypes="cccc" />
    <path
       sodipodi:nodetypes="czccccsccsccsc"
       id="path1978"
       d="M -0.2345122,55.654962 C 0.024047802,83.280481 34.030042,98.300141 45.907754,101.81312 C 57.714734,105.30519 75.214809,107.53738 85.056068,104.57682 C 95.675004,107.71115 104.35939,113.56145 117.41549,110.10476 C 119.44013,111.57314 123.11296,112.30663 124.40997,112.4352 C 110.35902,117.67682 96.72142,114.21253 85.023808,110.75981 C 76.152165,113.56825 66.362401,114.5947 56.199868,113.41872 C 23.332478,109.61541 -1.1936222,84.121168 -0.2345122,55.654962 z M 121.68285,62.222815 C 121.67391,63.831941 121.59755,65.46557 121.42336,67.092583 C 120.18559,78.654155 114.8587,88.876946 106.82569,96.850227 C 106.60436,96.389849 106.39302,95.919565 106.19016,95.442887 C 114.60509,87.377625 120.18152,76.900136 121.45409,65.013537 C 121.55396,64.080713 121.63774,63.150232 121.68285,62.222815 z"
       style="opacity:1;fill:url(#radialGradient3525);fill-opacity:1;fill-rule:nonzero;stroke:none;stroke-width:1.60000002;stroke-linecap:round;stroke-linejoin:round;stroke-miterlimit:4;stroke-dasharray:none;stroke-dashoffset:4;stroke-opacity:1" />
    <path
       sodipodi:nodetypes="czccccsccsccsc"
       id="path3087"
       d="M -0.2345122,55.654962 C 0.024047802,83.280481 34.030042,98.300141 45.907754,101.81312 C 57.714734,105.30519 75.306981,105.30025 85.148241,102.33968 C 95.767176,105.474 107.46009,115.01737 120.51619,111.56068 C 121.75152,111.94884 123.03695,112.25912 124.40997,112.4352 C 110.35902,117.67682 96.72142,114.21253 85.023808,110.75981 C 76.152165,113.56825 66.362401,114.5947 56.199868,113.41872 C 23.332478,109.61541 -1.1936222,84.121168 -0.2345122,55.654962 z M 121.68285,62.222815 C 121.67391,63.831941 121.59755,65.46557 121.42336,67.092583 C 120.18559,78.654155 114.8587,88.876946 106.82569,96.850227 C 106.60436,96.389849 106.39302,95.919565 106.19016,95.442887 C 114.60509,87.377625 120.18152,76.900136 121.45409,65.013537 C 121.55396,64.080713 121.63774,63.150232 121.68285,62.222815 z"
       style="opacity:0.23360656;fill:url(#radialGradient3093);fill-opacity:1;fill-rule:nonzero;stroke:none;stroke-width:1.60000002;stroke-linecap:round;stroke-linejoin:round;stroke-miterlimit:4;stroke-dasharray:none;stroke-dashoffset:4;stroke-opacity:1" />
    <path
       sodipodi:nodetypes="cccc"
       id="path2975"
       d="M 124.07484,113.19493 C 116.31884,110.89192 111.36097,106.86692 107.86548,98.555414 L 105.83251,99.7005 C 108.44482,104.80601 115.94959,113.07199 124.07484,113.19493 z"
       style="opacity:0.61065572;fill:url(#linearGradient3097);fill-opacity:1;fill-rule:evenodd;stroke:none;stroke-width:1px;stroke-linecap:butt;stroke-linejoin:miter;stroke-opacity:1" />
    <path
       style="opacity:0.90163933;fill:url(#radialGradient3112);fill-opacity:1;fill-rule:nonzero;stroke:none;stroke-width:1.60000002;stroke-linecap:round;stroke-linejoin:round;stroke-miterlimit:4;stroke-dasharray:none;stroke-dashoffset:4;stroke-opacity:1"
       d="M 6.3786476,54.257379 C 23.939708,63.364861 45.878151,69.733903 70.002845,71.829622 C 88.678918,73.452016 106.49811,72.292485 122.35533,68.94335 C 119.14212,74.872571 114.73167,80.068671 109.41094,84.34964 C 118.27853,124.32817 22.469528,90.30661 6.3786476,54.257379 z"
       id="path3101"
       sodipodi:nodetypes="csccc" />
    <path
       style="opacity:0.61065572;fill:url(#radialGradient2979);fill-opacity:1;fill-rule:evenodd;stroke:none;stroke-width:1px;stroke-linecap:butt;stroke-linejoin:miter;stroke-opacity:1"
       d="M 123.83398,113.12823 C 116.07798,110.82522 111.36097,106.86692 107.86548,98.555414 L 106.76709,99.191611 C 108.9498,106.09219 118.84328,113.04851 123.83398,113.12823 z"
       id="path2977"
       sodipodi:nodetypes="cccc" />
    <path
       style="opacity:0.23360656;fill:url(#radialGradient3095);fill-opacity:1;fill-rule:nonzero;stroke:none;stroke-width:1.60000002;stroke-linecap:round;stroke-linejoin:round;stroke-miterlimit:4;stroke-dasharray:none;stroke-dashoffset:4;stroke-opacity:1"
       d="M -0.2345122,55.654962 C 0.024047802,83.280481 24.451338,100.50601 45.846305,105.97122 C 67.276839,111.44552 75.260895,108.41882 85.102154,105.45824 C 95.72109,108.59258 107.46009,115.01737 120.51619,111.56068 C 121.75152,111.94884 123.03695,112.25912 124.40997,112.4352 C 110.35902,117.67682 96.72142,114.21253 85.023808,110.75981 C 76.152165,113.56825 66.362401,114.5947 56.199868,113.41872 C 23.332478,109.61541 -1.1936222,84.121168 -0.2345122,55.654962 z M 121.68285,62.222815 C 121.67391,63.831941 121.59755,65.46557 121.42336,67.092583 C 120.18559,78.654155 114.8587,88.876946 106.82569,96.850227 C 106.60436,96.389849 106.39302,95.919565 106.19016,95.442887 C 114.60509,87.377625 120.18152,76.900136 121.45409,65.013537 C 121.55396,64.080713 121.63774,63.150232 121.68285,62.222815 z"
       id="path3085"
       sodipodi:nodetypes="czccccsccsccsc" />
    <path
       style="opacity:0.23360656;fill:url(#radialGradient1982);fill-opacity:1;fill-rule:nonzero;stroke:none;stroke-width:1.60000002;stroke-linecap:round;stroke-linejoin:round;stroke-miterlimit:4;stroke-dasharray:none;stroke-dashoffset:4;stroke-opacity:1"
       d="M -0.2345122,55.654962 C 0.024047802,83.280481 34.030042,94.108705 45.907754,97.621684 C 57.714734,101.11375 75.306981,102.5597 85.148241,99.599126 C 95.767176,102.73345 107.46009,115.01737 120.51619,111.56068 C 121.75152,111.94884 123.03695,112.25912 124.40997,112.4352 C 110.35902,117.67682 96.72142,114.21253 85.023808,110.75981 C 76.152165,113.56825 66.362401,114.5947 56.199868,113.41872 C 23.332478,109.61541 -1.1936222,84.121168 -0.2345122,55.654962 z M 121.68285,62.222815 C 121.67391,63.831941 121.59755,65.46557 121.42336,67.092583 C 120.18559,78.654155 114.8587,88.876946 106.82569,96.850227 C 106.60436,96.389849 106.39302,95.919565 106.19016,95.442887 C 114.60509,87.377625 120.18152,76.900136 121.45409,65.013537 C 121.55396,64.080713 121.63774,63.150232 121.68285,62.222815 z"
       id="path1980"
       sodipodi:nodetypes="czccccsccsccsc" />
    <g
       id="g2923"
       inkscape:label="Layer 1"
       transform="matrix(0.7899697,0,0,0.7899697,21.426704,14.21774)"
       style="opacity:1">
      <path
         style="font-size:182.7288208px;font-style:normal;font-variant:normal;font-weight:bold;font-stretch:normal;opacity:0.56652359;fill:#000000;fill-opacity:1;stroke:none;stroke-width:12;stroke-linecap:butt;stroke-linejoin:miter;stroke-miterlimit:4;stroke-dasharray:none;stroke-opacity:1;filter:url(#filter7576);font-family:Sidux"
         d="M 43.78125,4.09375 C 37.25218,4.093849 31.604411,4.501882 26.71875,5.4375 C 16.409774,7.107392 8.310984,13.077468 5,22.21875 C 3.21546,27.036311 2.5,32.640853 2.5,39.21875 C 2.5,48.892083 4.42502,57.063911 9.03125,63.28125 L 9.03125,63.3125 C 14.220957,70.266057 22.639004,73.781294 32.09375,73.78125 L 59.1875,73.78125 C 60.029557,73.781256 60.444424,73.88314 60.625,73.9375 C 60.650779,74.078363 60.687493,74.359219 60.6875,74.9375 C 60.687478,76.92984 60.256622,77.502149 60.3125,77.4375 C 60.271767,77.466764 60.063087,77.531254 59.1875,77.53125 L 9.1875,77.53125 C 7.602448,77.531283 5.32614,78.027873 3.625,79.75 C 1.92386,81.472126 1.46875,83.770363 1.46875,85.375 L 1.46875,104.1875 C 1.46876,105.79213 1.92384,108.09036 3.625,109.8125 C 5.32616,111.53465 7.60243,112.03125 9.1875,112.03125 L 68.59375,112.03125 C 73.69748,112.03125 78.563066,110.70059 82.375,107.71875 L 82.4375,107.6875 L 82.5,107.625 C 85.69516,104.97845 88.25839,101.7463 90.0625,98.09375 C 93.087848,92.24666 94.593654,85.973838 94.59375,79.40625 C 94.593663,72.607372 94.091976,66.852033 92.84375,61.9375 C 91.608969,57.076752 89.642084,52.854818 86.6875,49.53125 C 83.803326,46.125056 80.036635,43.772736 75.6875,42.40625 C 71.589304,41.072817 67.051627,40.531316 61.875,40.53125 L 37.90625,40.53125 C 36.677238,40.531263 36.151757,40.35077 35.96875,40.28125 C 35.949626,40.171958 35.906247,39.959605 35.90625,39.40625 C 35.906248,39.006134 35.907304,38.951603 35.90625,38.875 C 36.148928,38.78851 36.720042,38.625017 37.90625,38.625 L 83,38.625 C 84.585157,38.625099 86.830097,38.097144 88.53125,36.375 C 90.232403,34.652857 90.718644,32.385786 90.71875,30.78125 L 90.71875,12.09375 C 90.718656,10.520784 90.313979,8.373701 88.6875,6.5625 C 87.061021,4.751298 84.684413,4.093887 83,4.09375 L 43.78125,4.09375 z M 43.78125,7.09375 L 83,7.09375 C 84.137779,7.093842 85.538964,7.523568 86.5,8.59375 C 87.461036,9.663933 87.749933,10.978127 87.75,12.09375 L 87.75,30.78125 C 87.749927,31.882776 87.404622,33.23931 86.40625,34.25 C 85.407878,35.260691 84.088151,35.593815 83,35.59375 L 37.90625,35.59375 C 35.665539,35.593782 34.425291,36.065362 33.84375,36.5625 C 33.26221,37.059636 32.906243,37.727827 32.90625,39.40625 C 32.906241,41.234242 33.313816,41.966894 33.90625,42.5 C 34.498684,43.033105 35.687635,43.531273 37.90625,43.53125 L 61.875,43.53125 C 66.828021,43.531313 71.108053,44.107184 74.8125,45.3125 C 78.701466,46.534402 81.962494,48.602628 84.46875,51.5625 C 87.010135,54.421266 88.788003,58.162474 89.9375,62.6875 C 91.093638,67.239461 91.624915,72.775043 91.625,79.40625 C 91.62491,85.502904 90.219488,91.31284 87.40625,96.75 C 85.794734,100.01262 83.491894,102.91196 80.59375,105.3125 L 80.5625,105.3125 L 80.53125,105.34375 C 77.324644,107.85208 73.214732,109 68.59375,109 L 9.1875,109 C 8.099372,109 6.748378,108.6982 5.75,107.6875 C 4.75162,106.6768 4.4375,105.28905 4.4375,104.1875 L 4.4375,85.375 C 4.4375,84.273448 4.75164,82.885682 5.75,81.875 C 6.748364,80.864317 8.099381,80.562518 9.1875,80.5625 L 59.1875,80.5625 C 61.102501,80.562508 61.969695,80.092099 62.5625,79.40625 C 63.155304,78.720401 63.656225,77.370024 63.65625,74.9375 C 63.656226,73.071828 63.272645,72.253901 62.75,71.75 C 62.227355,71.246101 61.197165,70.781269 59.1875,70.78125 L 32.09375,70.78125 C 23.287196,70.781291 16.042375,67.669954 11.4375,61.5 C 7.360832,55.997441 5.49999,48.484188 5.5,39.21875 C 5.5,32.877594 6.210815,27.605196 7.8125,23.28125 C 10.768594,15.119781 17.692876,9.990669 27.28125,8.4375 C 31.91145,7.550805 37.383423,7.093848 43.78125,7.09375 z"
         id="path2926" />
      <path
         id="path2928"
         d="M 7.4188437,83.352479 L 7.4188437,102.20456 C 7.4188423,103.40151 8.0100262,103.99999 9.192397,103.99999 L 68.606431,103.99999 C 72.744656,103.99999 76.114403,102.98258 78.715685,100.94775 C 81.316822,98.793235 83.326846,96.279627 84.745767,93.406921 C 87.346896,88.379716 88.647501,83.053261 88.647583,77.42754 C 88.647501,70.964003 88.115435,65.637548 87.051385,61.448158 C 85.987174,57.258854 84.390977,53.967225 82.262792,51.57326 C 80.134453,49.059705 77.355889,47.26427 73.927092,46.186951 C 70.616393,45.109749 66.596344,44.571118 61.866929,44.571059 L 37.923959,44.571059 C 32.603273,44.571118 29.942946,42.177206 29.94297,37.389315 C 29.942946,32.840948 32.603273,30.56673 37.923959,30.566657 L 82.972212,30.566657 C 84.154504,30.56673 84.745687,29.968253 84.745767,28.771221 L 84.745767,10.098685 C 84.745687,8.7821278 84.154504,8.1238019 82.972212,8.123706 L 43.776685,8.123706 C 37.510099,8.1238019 32.189444,8.5427365 27.814706,9.3805113 C 18.946927,10.816953 13.212444,15.125996 10.61124,22.307651 C 9.1923938,26.137993 8.4829732,31.105361 8.4829757,37.209771 C 8.4829732,46.067314 10.256524,52.889964 13.803636,57.677743 C 15.577179,60.191397 17.941915,62.166375 20.897848,63.602681 C 23.971989,65.03907 27.696448,65.757244 32.071234,65.757205 L 59.206599,65.757205 C 64.17249,65.757244 66.655462,68.151156 66.655523,72.938949 C 66.655462,78.68437 64.17249,81.557065 59.206599,81.557043 L 9.192397,81.557043 C 8.0100262,81.557065 7.4188423,82.155544 7.4188437,83.352479"
         style="font-size:182.7288208px;font-style:normal;font-variant:normal;font-weight:bold;font-stretch:normal;fill:none;fill-opacity:1;stroke:#333333;stroke-width:12;stroke-linecap:butt;stroke-linejoin:miter;stroke-miterlimit:4;stroke-opacity:1;font-family:Sidux" />
      <path
         id="path2930"
         d="M 7.4188437,83.352479 L 7.4188437,102.20456 C 7.4188423,103.40151 8.0100262,103.99999 9.192397,103.99999 L 68.606431,103.99999 C 72.744656,103.99999 76.114403,102.98258 78.715685,100.94775 C 81.316822,98.793235 83.326846,96.279627 84.745767,93.406921 C 87.346896,88.379716 88.647501,83.053261 88.647583,77.42754 C 88.647501,70.964003 88.115435,65.637548 87.051385,61.448158 C 85.987174,57.258854 84.390977,53.967225 82.262792,51.57326 C 80.134453,49.059705 77.355889,47.26427 73.927092,46.186951 C 70.616393,45.109749 66.596344,44.571118 61.866929,44.571059 L 37.923959,44.571059 C 32.603273,44.571118 29.942946,42.177206 29.94297,37.389315 C 29.942946,32.840948 32.603273,30.56673 37.923959,30.566657 L 82.972212,30.566657 C 84.154504,30.56673 84.745687,29.968253 84.745767,28.771221 L 84.745767,10.098685 C 84.745687,8.7821278 84.154504,8.1238019 82.972212,8.123706 L 43.776685,8.123706 C 37.510099,8.1238019 32.189444,8.5427365 27.814706,9.3805113 C 18.946927,10.816953 13.212444,15.125996 10.61124,22.307651 C 9.1923938,26.137993 8.4829732,31.105361 8.4829757,37.209771 C 8.4829732,46.067314 10.256524,52.889964 13.803636,57.677743 C 15.577179,60.191397 17.941915,62.166375 20.897848,63.602681 C 23.971989,65.03907 27.696448,65.757244 32.071234,65.757205 L 59.206599,65.757205 C 64.17249,65.757244 66.655462,68.151156 66.655523,72.938949 C 66.655462,78.68437 64.17249,81.557065 59.206599,81.557043 L 9.192397,81.557043 C 8.0100262,81.557065 7.4188423,82.155544 7.4188437,83.352479"
         style="font-size:182.7288208px;font-style:normal;font-variant:normal;font-weight:bold;font-stretch:normal;fill:none;fill-opacity:1;stroke:url(#radialGradient2463);stroke-width:6;stroke-linecap:butt;stroke-linejoin:miter;stroke-miterlimit:4;stroke-opacity:1;font-family:Sidux" />
      <path
         id="path2932"
         d="M 7.1343661,82.882251 L 7.1343661,101.73433 C 7.1343648,102.93129 7.7255485,103.52977 8.9079194,103.52977 L 68.321954,103.52977 C 72.460178,103.52977 75.829926,102.51236 78.431207,100.47752 C 81.032343,98.323007 83.042369,95.809399 84.461288,92.936694 C 87.062418,87.909488 88.363023,82.583033 88.363106,76.957311 C 88.363023,70.493775 87.830958,65.16732 86.766908,60.97793 C 85.702696,56.788626 84.106499,53.496996 81.978314,51.103032 C 79.849976,48.589476 77.071412,46.794042 73.642613,45.716724 C 70.331916,44.63952 66.311866,44.100891 61.582452,44.10083 L 37.639482,44.10083 C 32.318796,44.100891 29.658469,41.706977 29.658493,36.919086 C 29.658469,32.37072 32.318796,30.096503 37.639482,30.09643 L 82.687735,30.09643 C 83.870026,30.096503 84.46121,29.498025 84.461288,28.300993 L 84.461288,9.6284575 C 84.46121,8.3118996 83.870026,7.6535736 82.687735,7.6534778 L 43.492208,7.6534778 C 37.225621,7.6535736 31.904967,8.0725084 27.530229,8.910283 C 18.662449,10.346725 12.927966,14.655767 10.326762,21.837423 C 8.9079162,25.667764 8.1984956,30.635133 8.1984981,36.739543 C 8.1984956,45.597086 9.972047,52.419736 13.519158,57.207515 C 15.292701,59.721169 17.657437,61.696146 20.613371,63.132454 C 23.687512,64.568841 27.41197,65.287015 31.786756,65.286977 L 58.922122,65.286977 C 63.888013,65.287015 66.370985,67.680928 66.371045,72.468722 C 66.370985,78.214142 63.888013,81.086837 58.922122,81.086815 L 8.9079194,81.086815 C 7.7255485,81.086837 7.1343648,81.685315 7.1343661,82.882251"
         style="font-size:182.7288208px;font-style:normal;font-variant:normal;font-weight:bold;font-stretch:normal;fill:#cccccc;fill-opacity:1;stroke:none;stroke-width:6;stroke-linecap:butt;stroke-linejoin:miter;stroke-miterlimit:4;stroke-opacity:1;font-family:Sidux" />
      <path
         sodipodi:nodetypes="ccccccccsccscccssccccscsccccsccsccsccsccssc"
         id="path2934"
         d="M 43.952697,2.630123 C 37.470259,2.630223 31.925919,3.086568 27.234485,3.972065 C 17.519305,5.523144 10.503449,10.64535 7.508261,18.795838 C 5.885394,23.113965 5.165175,28.379265 5.165179,34.71189 C 5.267678,29.009494 6.008852,24.189824 7.508261,20.200196 C 10.503449,12.04971 17.519305,6.927501 27.234485,5.376422 C 31.925919,4.49092 37.470259,4.034578 43.952697,4.03448 L 83.690113,4.03448 C 84.842939,4.034572 86.26265,4.46372 87.2364,5.532462 C 88.21015,6.601205 88.50286,7.91363 88.50293,9.027752 L 88.50293,7.623394 C 88.50286,6.509272 88.21015,5.196844 87.2364,4.128104 C 86.26265,3.059375 84.842939,2.630213 83.690113,2.630123 L 43.952697,2.630123 z M 32.965538,35.61692 C 32.948262,35.833628 32.933874,36.040273 32.933875,36.303495 C 32.933866,38.129027 33.346831,38.860693 33.9471,39.393081 C 34.547369,39.925469 35.752044,40.422966 38,40.422944 L 62.285736,40.422944 C 67.30426,40.423006 71.640896,40.998102 75.394334,42.201796 C 79.334731,43.422054 82.638886,45.487497 85.178287,48.443385 C 87.75328,51.298304 89.55466,55.034477 90.71936,59.553413 C 91.80538,63.767798 92.35568,68.852719 92.42918,74.845306 C 92.4291,68.223023 91.89079,62.694891 90.71936,58.149056 C 89.55466,53.63012 87.75328,49.893946 85.178287,47.039028 C 82.638886,44.083139 79.334731,42.017696 75.394334,40.797439 C 71.640896,39.593745 67.30426,39.018646 62.285736,39.018586 L 38,39.018586 C 35.752044,39.018609 34.547369,38.521108 33.9471,37.988724 C 33.440063,37.539024 33.069292,36.890127 32.965538,35.61692 z M 62.637262,71.037937 C 62.548946,73.029803 62.100747,74.229492 61.56071,74.845306 C 60.960065,75.530232 60.081403,76.000008 58.141076,76 L 8.901446,76 C 7.798936,76.000018 6.430052,76.301411 5.418485,77.310734 C 4.406918,78.320056 4.088626,79.705954 4.088627,80.806023 L 4.088627,82.210381 C 4.088626,81.110311 4.406918,79.724413 5.418485,78.715091 C 6.430052,77.705768 7.798936,77.404375 8.901446,77.404357 L 58.141076,77.404357 C 60.081403,77.404365 60.960065,76.93459 61.56071,76.249664 C 62.161354,75.564738 62.668899,74.216178 62.668925,71.786928 C 62.668921,71.500429 62.654743,71.277618 62.637262,71.037937 z"
         style="font-size:182.7288208px;font-style:normal;font-variant:normal;font-weight:bold;font-stretch:normal;fill:#666666;fill-opacity:1;stroke:none;stroke-width:12;stroke-linecap:butt;stroke-linejoin:miter;stroke-miterlimit:4;stroke-dasharray:none;stroke-opacity:1;font-family:Sidux" />
      <path
         id="path2936"
         d="M 90.25029,26.59375 C 90.25018,28.198286 89.76939,30.465354 88.08729,32.1875 C 86.4052,33.909644 84.185403,34.437596 82.617999,34.4375 L 38.029355,34.4375 C 36.856432,34.437517 36.291719,34.601007 36.051757,34.6875 C 36.052796,34.764103 34.5,35.5 34.5,36.5 C 35.5,36 36.094652,35.984455 36.113557,36.09375 C 36.371199,36.004997 36.909293,35.843766 38.029355,35.84375 L 82.617999,35.84375 C 84.185403,35.843849 86.4052,35.315894 88.08729,33.59375 C 89.76939,31.871607 90.25018,29.604536 90.25029,28 L 90.25029,26.59375 z M 3.019699,35.5 C 3.016307,35.815704 3.019699,36.117202 3.019699,36.4375 C 3.019699,46.110833 4.923156,54.282661 9.477791,60.5 L 9.477791,60.53125 C 14.609369,67.484807 22.933117,71.000044 32.281962,71 L 59.072229,71 C 59.904857,71.000006 60.5,71 61.5,71.5 C 61.5,70.5 61,70 60.493627,69.75 C 60.31507,69.69564 59.904857,69.593756 59.072229,69.59375 L 32.281962,69.59375 C 22.933117,69.593794 14.609369,66.078557 9.477791,59.125 L 9.477791,59.09375 C 4.998681,52.979502 3.081973,44.963844 3.019699,35.5 z M 94.08188,75.6875 C 94.01197,82.083421 92.52099,88.19962 89.60139,93.90625 C 87.81749,97.5588 85.28297,100.79095 82.1236,103.4375 L 82.0618,103.5 L 82,103.53125 C 78.230768,106.51309 73.419679,107.84375 68.373117,107.84375 L 9.63229,107.84375 C 8.064975,107.84375 5.814202,107.34715 4.132097,105.625 C 2.449992,103.90286 2.00001,101.60463 2,100 L 2,101.40625 C 2.00001,103.01088 2.449992,105.30911 4.132097,107.03125 C 5.814202,108.7534 8.064975,109.25 9.63229,109.25 L 68.373117,109.25 C 73.419679,109.25 78.230768,107.91934 82,104.9375 L 82.0618,104.90625 L 82.1236,104.84375 C 85.28297,102.1972 87.81749,98.96505 89.60139,95.3125 C 92.59285,89.46541 94.08179,83.192588 94.08188,76.625 C 94.08188,76.306352 94.08409,76.001584 94.08188,75.6875 z"
         style="font-size:182.7288208px;font-style:normal;font-variant:normal;font-weight:bold;font-stretch:normal;fill:#000000;fill-opacity:1;stroke:none;stroke-width:12;stroke-linecap:butt;stroke-linejoin:miter;stroke-miterlimit:4;stroke-dasharray:none;stroke-opacity:1;font-family:Sidux"
         sodipodi:nodetypes="cscccccccscccsccccccccccccccccccsccsccccccsc" />
      <path
         id="path2938"
         d="M 43.5,7.65625 C 37.233415,7.6563455 31.905988,8.0684751 27.53125,8.90625 C 18.663469,10.342692 12.913703,14.662094 10.3125,21.84375 C 8.8936532,25.674091 8.1874977,30.645591 8.1875,36.75 C 8.1874981,45.607542 9.9841392,52.430971 13.53125,57.21875 C 15.304794,59.732404 17.669065,61.688693 20.625,63.125 C 23.699141,64.561388 27.406464,65.281289 31.78125,65.28125 L 58.9375,65.28125 C 63.90339,65.281286 66.374939,67.680957 66.375,72.46875 C 66.374937,78.214173 63.903391,81.093772 58.9375,81.09375 L 8.90625,81.09375 C 7.7238782,81.093772 7.1249986,81.678065 7.125,82.875 L 7.125,101.71875 C 7.1249986,102.91571 7.7238793,103.53125 8.90625,103.53125 L 68.3125,103.53125 C 72.450725,103.53125 75.836215,102.50358 78.4375,100.46875 C 81.038627,98.314235 83.049832,95.810206 84.46875,92.9375 C 87.069883,87.910296 88.374915,82.59447 88.375,76.96875 C 88.374919,70.505211 87.845305,65.158138 86.78125,60.96875 C 85.71704,56.779443 84.096938,53.487714 81.96875,51.09375 C 79.840412,48.580194 77.085046,46.796069 73.65625,45.71875 C 70.34555,44.641546 66.323164,44.093809 61.59375,44.09375 L 37.625,44.09375 C 32.304315,44.09381 29.656226,41.694141 29.65625,36.90625 C 29.656226,32.357883 32.304314,30.093824 37.625,30.09375 L 82.6875,30.09375 C 83.869785,30.093825 84.468678,29.509529 84.46875,28.3125 L 84.46875,9.625 C 84.468673,8.3084412 83.869784,7.6563474 82.6875,7.65625 L 43.5,7.65625 z"
         style="fill:url(#radialGradient2485);fill-opacity:1;stroke:none;stroke-width:6.5250001;stroke-linecap:round;stroke-linejoin:round;stroke-miterlimit:4;stroke-dashoffset:4;stroke-opacity:1" />
      <path
         id="path2940"
         d="M 43.5,7.65625 C 37.233415,7.6563455 31.905988,8.0684751 27.53125,8.90625 C 18.663469,10.342692 12.913703,14.662094 10.3125,21.84375 C 8.8936532,25.674091 8.1874977,30.645591 8.1875,36.75 C 8.1874992,40.260136 8.4698202,43.44135 9.03125,46.3125 C 14.133631,46.445236 19.16847,46.830331 24.125,47.40625 C 25.19768,47.80978 27.442949,45.109426 30.59375,40.96875 C 29.974019,39.89072 29.656242,38.542775 29.65625,36.90625 C 29.656226,32.357883 32.304314,30.093824 37.625,30.09375 L 38.875,30.09375 C 45.277246,21.904062 53.237526,12.820099 61.9375,7.65625 L 43.5,7.65625 z M 84.46875,21.75 C 82.024371,22.319886 79.597891,22.946364 77.1875,23.71875 C 73.72799,24.827316 70.463517,27.09314 67.34375,30.09375 L 82.6875,30.09375 C 83.869785,30.093825 84.468678,29.509529 84.46875,28.3125 L 84.46875,21.75 z M 56.3125,44.09375 C 54.613265,46.692413 52.947701,49.384572 51.28125,52.15625 C 63.076676,54.742011 74.726102,57.741133 86.5625,60.1875 C 85.49995,56.372 83.961417,53.335268 81.96875,51.09375 C 79.840412,48.580194 77.085046,46.796069 73.65625,45.71875 C 70.34555,44.641546 66.323164,44.093809 61.59375,44.09375 L 56.3125,44.09375 z"
         style="opacity:0.46551723;fill:url(#radialGradient2478);fill-opacity:1;fill-rule:evenodd;stroke:none;stroke-width:1px;stroke-linecap:butt;stroke-linejoin:miter;stroke-opacity:1" />
      <path
         id="path2942"
         d="M 43.5,7.65625 C 37.23341,7.6563455 31.90599,8.0684751 27.53125,8.90625 C 18.663469,10.342692 12.913703,14.662094 10.3125,21.84375 C 8.893653,25.674091 8.187498,30.645591 8.1875,36.75 C 8.1875,37.599112 8.217019,38.407025 8.25,39.21875 C 22.36265,30.076677 42.8223,14.96224 59.59375,7.65625 L 43.5,7.65625 z M 84.46875,21.75 C 82.02437,22.319886 79.59789,22.946364 77.1875,23.71875 C 74.84936,24.467984 73.63954,26.877229 73.34375,30.09375 L 82.6875,30.09375 C 83.86978,30.093825 84.46868,29.509529 84.46875,28.3125 L 84.46875,21.75 z M 77.21875,47.21875 C 79.50262,52.064784 82.6224,56.45361 86.1875,58.96875 C 85.14708,55.722581 83.74398,53.09068 81.96875,51.09375 C 80.63854,49.522777 79.05016,48.225378 77.21875,47.21875 z"
         style="opacity:0.16810345;fill:url(#radialGradient2493);fill-opacity:1;fill-rule:evenodd;stroke:none;stroke-width:1px;stroke-linecap:butt;stroke-linejoin:miter;stroke-opacity:1" />
    </g>
    <path
       style="opacity:1;fill:url(#linearGradient1976);fill-opacity:1;fill-rule:nonzero;stroke:none;stroke-width:1.60000002;stroke-linecap:round;stroke-linejoin:round;stroke-miterlimit:4;stroke-dasharray:none;stroke-dashoffset:4;stroke-opacity:1"
       d="M 64.862098,9.2671071 C 66.940811,9.4417623 69.060424,9.7165313 71.165936,10.085864 C 101.11108,15.338615 121.88852,38.567292 117.59746,61.983192 C 117.44438,62.818545 117.25303,63.655521 117.04109,64.468403 C 102.72845,68.153932 85.693291,69.588432 67.609061,68.055047 C 44.3586,66.083609 23.619188,59.603404 8.5964176,50.621907 C 8.4857876,48.08806 8.6491776,45.526296 9.1184376,42.965644 C 12.604948,23.940232 31.618358,10.653947 54.681427,9.1532534 C 58.007837,8.9368065 61.397577,8.9760126 64.862098,9.2671071 z"
       id="path2869" />
  </g>
</svg>
