/* XPM */
static char *aptosid_irc_16[] = {
/* columns rows colors chars-per-pixel */
"16 16 128 2 ",
"   c black",
".  c #010101",
"X  c #020202",
"o  c #070101",
"O  c #050202",
"+  c #040404",
"@  c #070707",
"#  c #0C0404",
"$  c #090909",
"%  c gray4",
"&  c gray6",
"*  c #100203",
"=  c #101010",
"-  c #131313",
";  c gray8",
":  c #151515",
">  c #1B1B1B",
",  c #1E1B1B",
"<  c gray12",
"1  c gray13",
"2  c #222222",
"3  c #272727",
"4  c #2A2A2A",
"5  c gray17",
"6  c #2C2C2C",
"7  c #2D2D2D",
"8  c gray18",
"9  c #2F2F2F",
"0  c #372224",
"q  c #313131",
"w  c #353535",
"e  c gray21",
"r  c #373737",
"t  c #3B3535",
"y  c gray22",
"u  c #3C3C3C",
"i  c #3E3C3C",
"p  c #3F3F3F",
"a  c #450000",
"s  c #4A080A",
"d  c #4D090D",
"f  c #5F0000",
"g  c #530B0E",
"h  c #5D0A0D",
"j  c #5F0B0D",
"k  c #640B0D",
"l  c #670C0E",
"z  c #770000",
"x  c #6A1113",
"c  c #721A1D",
"v  c #45292A",
"b  c #563234",
"n  c #5E3436",
"m  c #583E3F",
"M  c #642527",
"N  c #702123",
"B  c #722222",
"V  c #603134",
"C  c #7D3F41",
"Z  c gray26",
"A  c #444444",
"S  c #464646",
"D  c #494949",
"F  c #535353",
"G  c gray33",
"H  c #585858",
"J  c #5A5A5A",
"K  c gray36",
"L  c #7A4040",
"P  c #714E50",
"I  c #625050",
"U  c #635353",
"Y  c #635D5D",
"T  c #646464",
"R  c gray40",
"E  c #6F6666",
"W  c DimGray",
"Q  c #6D6D6D",
"!  c #7C6666",
"~  c #767676",
"^  c gray49",
"/  c #7E7E7E",
"(  c #8E0606",
")  c #863034",
"_  c #AD3838",
"`  c #8B5E5E",
"'  c #856666",
"]  c #896162",
"[  c #8A6666",
"{  c #8E6868",
"}  c #907979",
"|  c #9F7F7F",
" . c #A26B6B",
".. c #AE6B6B",
"X. c #A57777",
"o. c #BC7272",
"O. c #C16D6D",
"+. c gray51",
"@. c #868686",
"#. c #898989",
"$. c #8B8989",
"%. c gray55",
"&. c gray56",
"*. c #958A8A",
"=. c gray57",
"-. c #949393",
";. c #9F9494",
":. c #AA9292",
">. c #A2A2A2",
",. c #A9A9A9",
"<. c #ACACAC",
"1. c #B5B4B4",
"2. c gray72",
"3. c #CDBABA",
"4. c gray81",
"5. c gray88",
"6. c #E1E1E1",
"7. c #E2E1E1",
"8. c #E4E4E4",
"9. c #E7E7E7",
"0. c gray91",
"q. c #EAEAEA",
"w. c #F1F0F0",
"e. c #F8F6F6",
"r. c #F9F9F9",
"t. c #FEFEFE",
"y. c gray100",
"u. c None",
/* pixels */
"u.u.u.u.u.u.2 w 4 u.u.u.u.u.u.u.",
"u.u.u.u.9 9 2 ; > w w w u.u.u.u.",
"u.u.3 -               & y u.u.u.",
"u.2 @                     4 u.u.",
"u.@           #.q         % +.u.",
"u.3 =.Q %     2 0.5.9     <.#.u.",
"3 r.y.y.9.T     @ 2.r.A   9.@ u.",
"> y.y.w.y.y.4.Z     ~ %.  /   D ",
"  0.y.L N X.3.e.7.%.i 8 6 t Y >.",
"u.-.5.I a f z ( _ O.O... .` ;.u.",
"u.v 2.,.R E ! ' [ { *.:.} U W u.",
"u.u.P *.$.@.H K G y , & S / u.u.",
"u.u.u.C ] m * O O , i J G i u.u.",
"u.u.u.u.c ) N M V n b 0 # ; u.u.",
"u.u.u.u.u.u.k k g s u.d h l x u.",
"u.u.u.u.u.u.u.u.u.u.u.u.u.u.u.u."
};
