/* XPM */
static char *aptosid_irc[] = {
/* columns rows colors chars-per-pixel */
"32 32 151 2 ",
"   c #000000",
".  c #0C0303",
"X  c #0C0C0C",
"o  c #140101",
"O  c #1E0304",
"+  c #131313",
"@  c #1C1B1B",
"#  c #270606",
"$  c #2D0000",
"%  c #340303",
"&  c #3D0101",
"*  c #340C0D",
"=  c #3C0B0C",
"-  c #241313",
";  c #211D1D",
":  c #3D1719",
">  c #242323",
",  c #282323",
"<  c #2C2B2B",
"1  c #392525",
"2  c #343434",
"3  c #3C3C3C",
"4  c #470000",
"5  c #4B0404",
"6  c #4B070A",
"7  c #43090B",
"8  c #4D080A",
"9  c #530000",
"0  c #5C0202",
"q  c #540A0B",
"w  c #5B0B0E",
"e  c #580D10",
"r  c #441D1F",
"t  c #4B1A1B",
"y  c #521113",
"u  c #5C1111",
"i  c #600000",
"p  c #6A0000",
"a  c #650B0E",
"s  c #6C0B0E",
"d  c #730000",
"f  c #7D0000",
"g  c #700F0F",
"h  c #720E10",
"j  c #651416",
"k  c #6A1013",
"l  c #621919",
"z  c #681A1A",
"x  c #7A1116",
"c  c #74171A",
"v  c #7D161A",
"b  c #7C1A1D",
"n  c #52282A",
"m  c #5C2B2D",
"M  c #542E30",
"N  c #413B3B",
"B  c #4D3D3D",
"V  c #573D3E",
"C  c #5C3F3F",
"Z  c #622C2E",
"A  c #6C2E2F",
"S  c #702626",
"D  c #792629",
"F  c #752C2F",
"G  c #773134",
"H  c #713C3C",
"J  c #5E3F40",
"K  c #454343",
"L  c #494141",
"P  c #4B4B4B",
"I  c #524E4E",
"U  c #535252",
"Y  c #585252",
"T  c #5D5D5D",
"R  c #774444",
"E  c #6D5353",
"W  c #7D5454",
"Q  c gray39",
"!  c #696969",
"~  c #73696A",
"^  c #7A6D6D",
"/  c #777777",
"(  c #7D7373",
")  c #7C7C7C",
"_  c #830000",
"`  c #8F0000",
"'  c #860909",
"]  c #861111",
"[  c #801418",
"{  c #831B1B",
"}  c #8A1D21",
"|  c #8B2D2F",
" . c #862F32",
".. c #8C3A3C",
"X. c #A82323",
"o. c #A22C2C",
"O. c #853E40",
"+. c #824343",
"@. c #894346",
"#. c #824B4D",
"$. c #835D5D",
"%. c #8B585A",
"&. c #806A6A",
"*. c #886C6C",
"=. c #936060",
"-. c #926D6E",
";. c #837F7F",
":. c #8E7D7D",
">. c #A67E7E",
",. c #C55C5C",
"<. c #CA7F7F",
"1. c #878787",
"2. c #8D8081",
"3. c #898989",
"4. c #948484",
"5. c #988182",
"6. c #949494",
"7. c #989494",
"8. c gray60",
"9. c #A48484",
"0. c #B18D8D",
"q. c #A19596",
"w. c #B79C9C",
"e. c gray64",
"r. c #ADA7A7",
"t. c #AAA9A9",
"y. c #B4AAAA",
"u. c #B8AAAA",
"i. c gray71",
"p. c #BBBBBB",
"a. c #D68585",
"s. c #C0B2B2",
"d. c #CAB8B8",
"f. c #E5B0B0",
"g. c #C3C3C3",
"h. c #CCC2C2",
"j. c gray81",
"k. c #DECACA",
"l. c #D5D4D4",
"z. c #D8D0D0",
"x. c #DBD9D9",
"c. c #EAD3D3",
"v. c #F2D9D9",
"b. c #E2E2E2",
"n. c #EFE5E5",
"m. c #ECECEC",
"M. c #F6ECEC",
"N. c #F8ECEC",
"B. c #F4F4F4",
"V. c #FFFFFF",
"C. c None",
/* pixels */
"C.C.C.C.C.C.C.C.C.C.C.C.C.C.C.C.C.C.C.C.C.C.C.C.C.C.C.C.C.C.C.C.",
"C.C.C.C.C.C.C.C.C.C.C.  + < 3 3 3 < X   C.C.C.C.C.C.C.C.C.C.C.C.",
"C.C.C.C.C.C.C.C.X P T T U 3 < < < K T T 3 ;   C.C.C.C.C.C.C.C.C.",
"C.C.C.C.C.C.C.P P +                   . < P T < C.C.C.C.C.C.C.C.",
"C.C.C.C.C.2 P X                             . 3 P @ C.C.C.C.C.C.",
"C.C.C.C.< >                                     + P > C.C.C.C.C.",
"C.C.C.2 @                                           3 3 C.C.C.C.",
"C.C.C.@                                               2 C.C.C.C.",
"C.C.>                       < .                         2 C.C.C.",
"C.C.+                       i.B.8.@                   K b.P C.C.",
"C.+     < > X                 3.V.V.j.2             + V.B.> C.C.",
"C.  3 l.V.V.V.t.>               3 B.V.V.e..         T V.3.X > C.",
"C.> B.V.V.V.V.V.V.6.+             + x.V.V.m.<       g.V.+   > C.",
"C.P V.V.V.V.V.V.V.V.B./ .             8.V.V.m.      m.p.    + C.",
"C.2 V.V.V.V.V.V.V.V.V.V.b.U             P B.V.<     B.<     . C.",
"C.X V.V.V.V.V.h.m.V.V.V.V.V.j.K .         @ j.X   . 1.      3 C.",
"C.  b.V.V.V.9.9 0 $.x.V.V.V.V.V.m.e.P X                   U B.C.",
"C.  p.V.V.V.#.9 0 d _ o.<.c.V.V.V.V.V.B.t.T 3 > X , L / l.y.p.C.",
"C.. ) m.m.m.^ & 5 0 p d _ ` X.,.a.f.v.M.N.M.M.M.n.k.0.R t 4.x.C.",
"C.# - j.x.l.t.o $ & 4 9 0 p d d f _ _ ' ] { { h i l H 9.z.l.t.C.",
"C.C.# ^ d.g.p.! @ - # $ % & 5 e u j z S +.=.9.w.d.d.i.:.I ! C.C.",
"C.C.% : r.t.t.t.t.t.t.t.t.y.y.y.y.y.u.u.u.u.u.4.E 1 o < 6.U C.C.",
"C.C.C.= E q.6.6.6.6.6.6.6.6.6.6.6.6.1.! P < X     > Q 6.) C.C.C.",
"C.C.C.C.6 W 5.:.;.1.) Q < 3 3 2 < X           < Q ;.;./ C.C.C.C.",
"C.C.C.C.C.w #.-.*.^ ~ ;                 X 2 T ! ! ! Q < C.C.C.C.",
"C.C.C.C.C.C.e O.%.%.$.= # O O . . X , B Y Y U U U P 2 3 C.C.C.C.",
"C.C.C.C.C.C.C.q b ..@.G e 6 7 t M C C C L J B N > . X P C.C.C.C.",
"C.C.C.C.C.C.C.C.C.h } |  .D F A A Z Z Z Z n r * O     + P C.C.C.",
"C.C.C.C.C.C.C.C.C.C.C.s h x [ v c c j y 7 7 6 q a a w q k ..m C.",
"C.C.C.C.C.C.C.C.C.C.C.C.C.C.C.C.C.C.C.C.C.C.C.C.C.C.a s s C.C.C.",
"C.C.C.C.C.C.C.C.C.C.C.C.C.C.C.C.C.C.C.C.C.C.C.C.C.C.C.C.C.C.C.C.",
"C.C.C.C.C.C.C.C.C.C.C.C.C.C.C.C.C.C.C.C.C.C.C.C.C.C.C.C.C.C.C.C."
};
