/* XPM */
static char *sidux-irc-16[] = {
/* columns rows colors chars-per-pixel */
"16 16 140 2",
"   c black",
".  c #000001",
"X  c #000101",
"o  c #010101",
"O  c #040404",
"+  c #060708",
"@  c #060A0E",
"#  c #090A0C",
"$  c #090B0D",
"%  c #0B0C0D",
"&  c #080C11",
"*  c #0E171C",
"=  c #131313",
"-  c #131415",
";  c #10161B",
":  c #16191C",
">  c #181818",
",  c #111722",
"<  c #151F27",
"1  c #131E2A",
"2  c #15202F",
"3  c #1E2427",
"4  c #1A2837",
"5  c #1E2936",
"6  c #192838",
"7  c #1D2C38",
"8  c gray14",
"9  c #262727",
"0  c #272728",
"q  c #282929",
"w  c #292A2B",
"e  c #2A2B2D",
"r  c #2C2C2C",
"t  c #2D2D2D",
"y  c #2C2F33",
"u  c #2A3035",
"i  c #2A3037",
"p  c #2E3339",
"a  c gray20",
"s  c #393939",
"d  c #3E3E3E",
"f  c #1E2E41",
"g  c #1F2E42",
"h  c #203343",
"j  c #223142",
"k  c #233347",
"l  c #213446",
"z  c #233C4E",
"x  c #283C55",
"c  c #2C405C",
"v  c #2E4561",
"b  c #2E4661",
"n  c #294F6A",
"m  c #304967",
"M  c #314A69",
"N  c #314A6A",
"B  c #344E6E",
"V  c #365274",
"C  c #3B597D",
"Z  c gray25",
"A  c #404041",
"S  c #444444",
"D  c #4B4B4B",
"F  c gray30",
"G  c #565656",
"H  c #585959",
"J  c #606060",
"K  c gray38",
"L  c gray39",
"P  c #626466",
"I  c #636566",
"U  c gray42",
"Y  c gray45",
"T  c #767676",
"R  c gray47",
"E  c #78797B",
"W  c #7A7A7B",
"Q  c #3C5B80",
"!  c #7B7E80",
"~  c #7F8386",
"^  c gray51",
"/  c #828383",
"(  c #808487",
")  c #848484",
"_  c gray53",
"`  c #898989",
"'  c gray54",
"]  c #8D8D8D",
"[  c #8B8E90",
"{  c #8F8F90",
"}  c #909090",
"|  c gray57",
" . c #929292",
".. c #939393",
"X. c #959595",
"o. c #9D9D9D",
"O. c gray62",
"+. c #A0A0A0",
"@. c #A5A5A5",
"#. c #A7A7A7",
"$. c gray68",
"%. c gray69",
"&. c #B1B1B1",
"*. c gray70",
"=. c #B7B7B7",
"-. c gray72",
";. c #B9B9B9",
":. c #BCBCBC",
">. c #C1C1C1",
",. c gray76",
"<. c gray78",
"1. c gray79",
"2. c #CBCBCB",
"3. c gray80",
"4. c #CECECE",
"5. c gray81",
"6. c #D0D0D0",
"7. c gray82",
"8. c gray83",
"9. c #D5D5D5",
"0. c gray84",
"q. c #D8D8D8",
"w. c gray85",
"e. c #DADADA",
"r. c gray86",
"t. c gainsboro",
"y. c gray87",
"u. c #DFDFDF",
"i. c gray88",
"p. c #E1E1E1",
"a. c #E2E2E2",
"s. c gray89",
"d. c gray90",
"f. c #E9E9E9",
"g. c gray92",
"h. c #ECECEC",
"j. c gray93",
"k. c gray94",
"l. c gray100",
"z. c None",
/* pixels */
"z.z.z.z.z.          z.z.z.z.z.z.",
"z.z.z.  T } $.-.&.} L   z.z.z.z.",
"z.  s o.,.q.a.d.a.y.y.@.A   z.z.",
"z.8 } =.g.j.j.g.a.a.a.&.O.A   z.",
"  D _ 4.d.d.a.q.q.r.d.+.' / = z.",
"  L Y 1.q.q...} } ' _ R T T d   ",
"  t G @.7.4.4.4.0.0.:.U L L d   ",
"    + A ,.1.4.1.2.2.1.` D F a   ",
"    ; 7 u P W / } 1.,...3 : $   ",
"@   O H W ! ~ ~ ] 4.<.{ n z *   ",
"2 , $ -.0.q.a.a.y.q.7.P h <     ",
"z.6 5 -.t.d.j.k.g.a.*.>       z.",
"z.z.h i p y e q q 0 -     t   z.",
"z.z.z.k V C Q B b x g 1 & $ 8 = ",
"z.z.z.z.z.z.x M g     4 b M M j ",
"z.z.z.z.z.z.z.z.z.z.z.z.z.z.z.z."
};
