/* XPM */
static char *sidux-irc-16[] = {
/* columns rows colors chars-per-pixel */
"16 16 146 2",
"   c black",
".  c #010103",
"X  c #020203",
"o  c #020303",
"O  c gray2",
"+  c #050607",
"@  c #05060B",
"#  c #05080B",
"$  c #070A0C",
"%  c #0A0A0C",
"&  c #0E0E0E",
"*  c gray6",
"=  c #0C1012",
"-  c #0D1014",
";  c #0E1317",
":  c #0C131A",
">  c #0F161F",
",  c #131416",
"<  c gray8",
"1  c #121A25",
"2  c #1C2022",
"3  c #1D2125",
"4  c #162332",
"5  c #182531",
"6  c #192732",
"7  c #1B2833",
"8  c #1A2939",
"9  c #1B293C",
"0  c #1C2A3B",
"q  c #1D2C3C",
"w  c #202020",
"e  c gray16",
"r  c #292A2A",
"t  c #2F2F2F",
"y  c #2B3033",
"u  c #2E3031",
"i  c #2F333B",
"p  c gray19",
"a  c #313131",
"s  c #373737",
"d  c gray23",
"f  c #3C3C3C",
"g  c #3C3C3D",
"h  c gray24",
"j  c #213347",
"k  c #263B4B",
"l  c #273D54",
"z  c #283D53",
"x  c #2A3F5A",
"c  c #2A4059",
"v  c #2C435F",
"b  c #35454E",
"n  c #35464F",
"m  c #374650",
"M  c #374A56",
"N  c #384750",
"B  c #2E4562",
"V  c #2F4664",
"C  c #314967",
"Z  c #324C6A",
"A  c #355172",
"S  c #365073",
"D  c #38567A",
"F  c gray25",
"G  c gray26",
"H  c gray30",
"J  c #4E4E4E",
"K  c #4F5458",
"L  c #565656",
"P  c gray36",
"I  c #5D5D5D",
"U  c #5F5F5F",
"Y  c gray38",
"T  c #606163",
"R  c #646464",
"E  c #636668",
"W  c #686868",
"Q  c #717273",
"!  c #727272",
"~  c #767676",
"^  c #777777",
"/  c #7B7B7B",
"(  c #818181",
")  c gray51",
"_  c #848484",
"`  c gray53",
"'  c #888888",
"]  c #898989",
"[  c gray54",
"{  c gray55",
"}  c gray56",
"|  c #909090",
" . c gray57",
".. c #929292",
"X. c #939393",
"o. c gray58",
"O. c #9D9D9D",
"+. c #A0A0A0",
"@. c #A2A2A2",
"#. c gray65",
"$. c #A9A9A9",
"%. c #AAAAAA",
"&. c #AEAEAE",
"*. c gray69",
"=. c #B2B2B2",
"-. c #B6B6B6",
";. c gray72",
":. c #BBBBBB",
">. c gray75",
",. c #C1C1C1",
"<. c gray76",
"1. c #C3C3C3",
"2. c gray77",
"3. c #C5C6C6",
"4. c #C6C6C6",
"5. c #C8C8C8",
"6. c gray79",
"7. c #CACACA",
"8. c #CBCBCB",
"9. c gray80",
"0. c #CDCDCD",
"q. c #CECECE",
"w. c gray81",
"e. c #D0D0D0",
"r. c #D2D2D2",
"t. c LightGray",
"y. c gray83",
"u. c #D5D5D5",
"i. c gray84",
"p. c gray85",
"a. c gray86",
"s. c gainsboro",
"d. c gray87",
"f. c #DFDFDF",
"g. c gray88",
"h. c #E1E1E1",
"j. c #E2E2E2",
"k. c gray89",
"l. c gray90",
"z. c #E6E6E6",
"x. c gray91",
"c. c #E9E9E9",
"v. c #ECECEC",
"b. c gray93",
"n. c gray100",
"m. c None",
/* pixels */
"m.m.m.m.m.m.          m.m.m.m.m.",
"m.m.m.m.  P } *.;.&.} ^   m.m.m.",
"m.m.  d @.<.0.u.u.u.u.0.@.d   m.",
"m.  G O.3.z.v.v.z.z.j.j.$.} e m.",
"m.& ) } s.z.z.z.s.s.j.z.o.` H   ",
"  G ^ ) a.s.5.} } } [ ` ^ ! R   ",
"  d Y W 5.u.e.5.8.0.<.` P L t   ",
"  a H H @.5.0.0.0.0.e.5.d = +   ",
"  + < 2 u P @.$.$.=.>.:.K 6 X   ",
"  $ 7 k N M n n n E 5.3.Y X   @ ",
"    < u 3.w.e.u.u.u.t.8.s   > 4 ",
"m.  O > e.a.f.z.z.j.a.-.3 9 0 m.",
"m.  a < / _ ` } } ` ! i V c m.m.",
"& e % # : 1 8 j l C S D l m.m.m.",
"= V S Z 0     5 v x m.m.m.m.m.m.",
"m.m.m.m.m.m.m.m.m.m.m.m.m.m.m.m."
};
