/* XPM */
static char *sidux_irc[] = {
/* columns rows colors chars-per-pixel */
"32 32 151 2 ",
"   c #000000",
".  c #0C0303",
"X  c #0C0C0C",
"o  c #140101",
"O  c #1E0404",
"+  c #131313",
"@  c #1C1B1B",
"#  c #270606",
"$  c #2B0202",
"%  c #330304",
"&  c #3D0101",
"*  c #3F0708",
"=  c #340C0D",
"-  c #380C0D",
";  c #241313",
":  c #211D1D",
">  c #3D1719",
",  c #242323",
"<  c #282323",
"1  c #2C2B2B",
"2  c #392525",
"3  c #343434",
"4  c #3C3C3C",
"5  c #470000",
"6  c #4B0404",
"7  c #420A0C",
"8  c #4D080A",
"9  c #530000",
"0  c #5C0202",
"q  c #540A0B",
"w  c #5A0B0E",
"e  c #580D10",
"r  c #441D1F",
"t  c #4B1A1B",
"y  c #511112",
"u  c #5C1111",
"i  c #600000",
"p  c #6A0000",
"a  c #630B0E",
"s  c #6B0C0F",
"d  c #730000",
"f  c #7D0000",
"g  c #700F0F",
"h  c #720E11",
"j  c #651416",
"k  c #6B1013",
"l  c #621919",
"z  c #681A1A",
"x  c #791116",
"c  c #74171A",
"v  c #7D161A",
"b  c #7C1A1D",
"n  c #52282A",
"m  c #5C2B2D",
"M  c #542E30",
"N  c #413B3B",
"B  c #4D3D3D",
"V  c #573D3E",
"C  c #5C3F3F",
"Z  c #622C2E",
"A  c #6C2E2F",
"S  c #702626",
"D  c #792629",
"F  c #752C2F",
"G  c #773134",
"H  c #713C3C",
"J  c #5E3F40",
"K  c #454343",
"L  c #494141",
"P  c #4B4B4B",
"I  c #524E4E",
"U  c #535252",
"Y  c #585252",
"T  c #5D5D5D",
"R  c #774444",
"E  c #6D5353",
"W  c #7D5454",
"Q  c #636363",
"!  c #696969",
"~  c #73696A",
"^  c #7A6D6D",
"/  c #777777",
"(  c #7D7373",
")  c #7C7C7C",
"_  c #830000",
"`  c #8F0000",
"'  c #860909",
"]  c #861111",
"[  c #801418",
"{  c #831B1B",
"}  c #8A1D21",
"|  c #8B2D2F",
" . c #862F32",
".. c #8C3B3C",
"X. c #A82323",
"o. c #A22C2C",
"O. c #853E40",
"+. c #824343",
"@. c #894346",
"#. c #824B4D",
"$. c #835D5D",
"%. c #8B585A",
"&. c #806A6A",
"*. c #886C6C",
"=. c #936060",
"-. c #926D6E",
";. c #837F7F",
":. c #8E7D7D",
">. c #A67E7E",
",. c #C55C5C",
"<. c #CA7F7F",
"1. c #878787",
"2. c #8D8081",
"3. c #898989",
"4. c #948484",
"5. c #988182",
"6. c #949494",
"7. c #989494",
"8. c #999999",
"9. c #A48484",
"0. c #B18D8D",
"q. c #A19596",
"w. c #B79C9C",
"e. c #A3A3A3",
"r. c #ADA7A7",
"t. c #AAA9A9",
"y. c #B4AAAA",
"u. c #B8AAAA",
"i. c #B5B5B5",
"p. c #BCBBBB",
"a. c #D68585",
"s. c #C0B2B2",
"d. c #CAB8B8",
"f. c #E5B0B0",
"g. c #C3C3C3",
"h. c #CCC2C2",
"j. c #CFCFCF",
"k. c #DECACA",
"l. c #D4D3D3",
"z. c #D8D0D0",
"x. c #DBD9D9",
"c. c #EAD3D3",
"v. c #F2D9D9",
"b. c #E2E2E2",
"n. c #EFE5E5",
"m. c #ECECEC",
"M. c #F6ECEC",
"N. c #F8ECEC",
"B. c #F4F4F4",
"V. c #FFFFFF",
"C. c None",
/* pixels */
"C.C.C.C.C.C.C.C.C.C.C.C.C.C.C.C.C.C.C.C.C.C.C.C.C.C.C.C.C.C.C.C.",
"C.C.C.C.C.C.C.C.C.C.C.  + 1 4 4 4 1 X   C.C.C.C.C.C.C.C.C.C.C.C.",
"C.C.C.C.C.C.C.C.X P T T U 3 3 1 3 K T T 4 :   C.C.C.C.C.C.C.C.C.",
"C.C.C.C.C.C.C.P P +                   . 1 P T 1 C.C.C.C.C.C.C.C.",
"C.C.C.C.C.3 P X                             . 4 P @ C.C.C.C.C.C.",
"C.C.C.C.1 ,                                     + P , C.C.C.C.C.",
"C.C.C.3 @                                           4 4 C.C.C.C.",
"C.C.C.,                                               3 C.C.C.C.",
"C.C.,                       1 .                         3 C.C.C.",
"C.C.+                       i.B.8.@                   K b.P C.C.",
"C.+     1 , X                 3.V.V.j.3             + V.B., C.C.",
"C.  4 l.V.V.V.t.,               4 B.V.V.e..         T V.3.X , C.",
"C., B.V.V.V.V.V.V.6.+             + x.V.V.m.1       g.V.+   , C.",
"C.P V.V.V.V.V.V.V.V.B./ .             8.V.V.m.      m.p.    + C.",
"C.3 V.V.V.V.V.V.V.V.V.V.b.U             P B.V.1     B.1     . C.",
"C.X V.V.V.V.V.h.m.V.V.V.V.V.j.K .         @ j.X   . 1.      4 C.",
"C.  b.V.V.V.9.9 0 $.x.V.V.V.V.V.m.e.P X                   U B.C.",
"C.  p.V.V.V.#.6 i p _ o.<.c.V.V.V.V.V.B.t.E 4 , X 1 L / l.y.p.C.",
"C.. ) m.m.m.^ & 6 0 p d _ ` X.,.a.f.v.M.N.M.M.M.n.k.0.R t 4.x.C.",
"C.# ; j.x.l.t.o $ & 5 9 0 p p f f _ _ ' ] { { g 0 l H 9.l.l.t.C.",
"C.C.# ( d.g.g.! @ ; # $ % & 8 q u j z S +.=.9.w.d.h.u.:.I ! C.C.",
"C.C.$ > r.r.t.t.r.t.t.r.t.y.y.y.y.y.u.u.u.u.u.4.E 2 o 1 6.U C.C.",
"C.C.C.7 E q.7.6.6.6.6.6.6.6.6.6.6.6.1.! P 1 X     , Q 6.) C.C.C.",
"C.C.C.C.8 W 5.2.;.) ) ! 1 4 4 3 1 X           1 Q ) ;./ C.C.C.C.",
"C.C.C.C.C.w #.-.*.^ ~ :                 X 3 T ! ! ! Q 1 C.C.C.C.",
"C.C.C.C.C.C.w O.%.%.$.- # O o .   . < B Y U U U U P 3 4 C.C.C.C.",
"C.C.C.C.C.C.C.q b ..@.G q 8 7 t M R C C L C B N , . X P C.C.C.C.",
"C.C.C.C.C.C.C.C.C.h } |  .D F F Z m Z Z Z m r = O     + P C.C.C.",
"C.C.C.C.C.C.C.C.C.C.C.s h x [ v b c j y 7 7 8 q a a w q k ..m C.",
"C.C.C.C.C.C.C.C.C.C.C.C.C.C.C.C.C.C.C.C.C.C.C.C.C.C.a s s C.C.C.",
"C.C.C.C.C.C.C.C.C.C.C.C.C.C.C.C.C.C.C.C.C.C.C.C.C.C.C.C.C.C.C.C.",
"C.C.C.C.C.C.C.C.C.C.C.C.C.C.C.C.C.C.C.C.C.C.C.C.C.C.C.C.C.C.C.C."
};
