/* XPM */
static char *sidux_irc[] = {
/* columns rows colors chars-per-pixel */
"32 32 161 2",
"   c #000000",
".  c #0B0202",
"X  c #0B0B0B",
"o  c #130102",
"O  c #1C0203",
"+  c #1E0C0C",
"@  c #141414",
"#  c #1F1616",
"$  c #1C1C1C",
"%  c #240304",
"&  c #2C0506",
"*  c #280A0C",
"=  c #350404",
"-  c #3A0000",
";  c #350608",
":  c #3C0708",
">  c #340C0D",
",  c #2F1010",
"<  c #221B1B",
"1  c #3A1718",
"2  c #3F1D1E",
"3  c #242323",
"4  c #2B2B2B",
"5  c #352A2A",
"6  c #3D2C2C",
"7  c #343434",
"8  c #3C3C3C",
"9  c #430000",
"0  c #4E0000",
"q  c #46070A",
"w  c #440A0B",
"e  c #4B090A",
"r  c #520303",
"t  c #5D0202",
"y  c #520A0C",
"u  c #5B0A0C",
"i  c #550E10",
"p  c #4A1B1C",
"a  c #541112",
"s  c #501A1A",
"d  c #6C0101",
"f  c #640B0D",
"g  c #6A0D0F",
"h  c #760000",
"j  c #7C0000",
"k  c #6D0D10",
"l  c #750E12",
"z  c #6C1214",
"x  c #761515",
"c  c #7B1216",
"v  c #76171A",
"b  c #7E161A",
"n  c #711919",
"m  c #7B1A1C",
"M  c #4A2525",
"N  c #4F2B2D",
"B  c #53292B",
"V  c #5D2C2E",
"C  c #532E30",
"Z  c #423D3D",
"A  c #4B3D3D",
"S  c #563D3F",
"D  c #5C3F3F",
"F  c #632C2D",
"G  c #6D2E2F",
"H  c #782628",
"J  c #742C2F",
"K  c #733134",
"L  c #7B3B3C",
"P  c #5C3F40",
"I  c #444444",
"U  c #4A4141",
"Y  c #4B4B4B",
"T  c #554E4E",
"R  c #594A4A",
"E  c #535252",
"W  c #5C5C5C",
"Q  c #6C4E4F",
"!  c #7C4444",
"~  c #7D4B4C",
"^  c #765152",
"/  c #7A5455",
"(  c #656464",
")  c gray42",
"_  c #746A6A",
"`  c #7A6969",
"'  c #777777",
"]  c #7D7373",
"[  c #7C7B7B",
"{  c #810000",
"}  c #8B0000",
"|  c #810F0F",
" . c #940000",
".. c #990000",
"X. c #9B0909",
"o. c #821418",
"O. c #9A1111",
"+. c #941B1B",
"@. c #871C21",
"#. c #822525",
"$. c #892C2F",
"%. c #852E32",
"&. c #873B3C",
"*. c #A02C2C",
"=. c #B32323",
"-. c #813D40",
";. c #864346",
":. c #914343",
">. c #835659",
",. c #895759",
"<. c #805D5D",
"1. c #836A6B",
"2. c #8E6B6D",
"3. c #827E7E",
"4. c #8B7E7F",
"5. c #967C7C",
"6. c #A16060",
"7. c #AF7E7E",
"8. c #CE5C5C",
"9. c #C87F7F",
"0. c #957F81",
"q. c #868686",
"w. c #8F8686",
"e. c #898989",
"r. c #938282",
"t. c #949393",
"y. c #9A9393",
"u. c #999999",
"i. c #A38585",
"p. c #B58D8D",
"a. c #BF9B9B",
"s. c gray64",
"d. c #ACA7A7",
"f. c #AAAAAA",
"g. c #B3AAAA",
"h. c #BDAAAA",
"j. c gray71",
"k. c #BDBDBD",
"l. c #DF8585",
"z. c #C0AAAA",
"x. c #C4B1B1",
"c. c #CFB8B8",
"v. c #D2BFBF",
"b. c #EBB0B0",
"n. c #C7C7C7",
"m. c #C8C4C4",
"M. c gray81",
"N. c #D4D3D3",
"B. c #DAD0D0",
"V. c #DBD9D9",
"C. c #E0CACA",
"Z. c #E9D3D3",
"A. c #F5D9D9",
"S. c #E2E2E2",
"D. c #ECECEC",
"F. c #F0E5E5",
"G. c #F6ECEC",
"H. c #F9ECEC",
"J. c #F4F4F4",
"K. c #FFFFFF",
"L. c None",
/* pixels */
"L.L.L.L.L.L.L.L.L.L.L.L.L.L.L.L.L.L.L.L.L.L.L.L.L.L.L.L.L.L.L.L.",
"L.L.L.L.L.L.L.L.L.L.L.  @ 4 8 8 8 4 X   L.L.L.L.L.L.L.L.L.L.L.L.",
"L.L.L.L.L.L.L.L.X Y W W E 7 7 4 7 I W W 8 $   L.L.L.L.L.L.L.L.L.",
"L.L.L.L.L.L.L.Y Y @                   . 4 Y W 7 L.L.L.L.L.L.L.L.",
"L.L.L.L.L.7 I X                             . 8 Y $ L.L.L.L.L.L.",
"L.L.L.L.4 3                                     @ Y 3 L.L.L.L.L.",
"L.L.L.7 $                                         . 8 7 L.L.L.L.",
"L.L.L.3                                               7 L.L.L.L.",
"L.L.3                       4 .                         7 L.L.L.",
"L.L.@                       j.J.u.$                   I S.Y L.L.",
"L.X     4 3 X                 e.K.K.M.7             @ K.J.3 L.L.",
"L.  8 N.K.K.K.d.3               8 J.K.K.s..         W K.e.. 3 L.",
"L.3 J.K.K.K.K.K.K.t.@             @ V.K.K.D.4       n.K.@   3 L.",
"L.Y K.K.K.K.K.K.K.K.J.' .             u.K.K.D.      D.k.    @ L.",
"L.7 K.K.K.K.K.K.K.K.K.K.S.W             Y J.K.4     J.4     X L.",
"L.@ K.K.K.K.K.m.D.K.K.K.K.K.n.I .         $ M.X   . q.      8 L.",
"L.  S.K.K.K.r.0 r <.V.K.K.K.K.K.D.s.Y X                   E J.L.",
"L.  k.K.K.K.>.0 d d j *.9.Z.K.K.K.K.K.J.f.W Z 3 @ 3 U ] N.g.k.L.",
"L.. [ D.D.D.` 9 9 t d j } ..=.8.l.b.A.G.H.H.H.F.F.C.p.! s r.V.L.",
"L.O # M.V.N.f.o - 9 r t d h j }  . . .X.X.+.+.| d n L i.B.N.f.L.",
"L.L.% _ v.k.k.) < * ; - 9 r u f z x m #.:.6.7.z.c.m.x.5.T ) L.L.",
"L.L.& 1 d.f.f.f.f.f.f.g.d.g.h.h.h.z.h.z.z.h.h.i./ M % 5 t.E L.L.",
"L.L.L.; Q y.t.t.t.t.t.t.t.t.t.t.y.y.w._ R 6 + o o < ( e.[ L.L.L.",
"L.L.L.L.e ^ r.3.3.3.3.( 4 8 Z 7 3 @           4 ( 3.[ [ L.L.L.L.",
"L.L.L.L.L.i ~ 2.1.` _ <           .     X 7 W ( ( ) ( 4 L.L.L.L.",
"L.L.L.L.L.L.y ! ,.>./ > % O o . . . 3 Z E E E E T Y 7 8 L.L.L.L.",
"L.L.L.L.L.L.L.e m &.;.K i q w p N P D D R D A Z 3   X Y L.L.L.L.",
"L.L.L.L.L.L.L.L.L.k @.%.%.H J G G F F V V B 2 * o .   @ I L.L.L.",
"L.L.L.L.L.L.L.L.L.L.L.k l c o.b m v z a w : : q y y e w a L N L.",
"L.L.L.L.L.L.L.L.L.L.L.L.L.L.L.L.L.L.L.L.L.L.L.L.L.L.u f g L.L.L.",
"L.L.L.L.L.L.L.L.L.L.L.L.L.L.L.L.L.L.L.L.L.L.L.L.L.L.L.L.L.L.L.L.",
"L.L.L.L.L.L.L.L.L.L.L.L.L.L.L.L.L.L.L.L.L.L.L.L.L.L.L.L.L.L.L.L."
};
