/* XPM */
static char *sidux_irc___[] = {
/* columns rows colors chars-per-pixel */
"16 16 129 2",
"   c black",
".  c #010000",
"X  c #010101",
"o  c #020202",
"O  c #070101",
"+  c #050202",
"@  c #040404",
"#  c #070707",
"$  c #0C0404",
"%  c #090909",
"&  c gray4",
"*  c gray6",
"=  c #100203",
"-  c #101010",
";  c #131313",
":  c gray8",
">  c #151515",
",  c #1B1B1B",
"<  c #1E1B1B",
"1  c #202020",
"2  c gray13",
"3  c #222222",
"4  c #272727",
"5  c #2A2A2A",
"6  c #2C2C2C",
"7  c #2D2D2D",
"8  c gray18",
"9  c #2F2F2F",
"0  c #372224",
"q  c #313131",
"w  c #343434",
"e  c #353535",
"r  c gray21",
"t  c #3B3535",
"y  c gray22",
"u  c gray23",
"i  c #3E3C3C",
"p  c #3F3F3F",
"a  c #450000",
"s  c #46090A",
"d  c #4F080A",
"f  c #5F0000",
"g  c #550A0E",
"h  c #5D0A0D",
"j  c #600B0E",
"k  c #670B0E",
"l  c #610C0E",
"z  c #770000",
"x  c #691013",
"c  c #73191D",
"v  c #452A2B",
"b  c #563234",
"n  c #5E3436",
"m  c #583E3F",
"M  c #642527",
"N  c #702123",
"B  c #722222",
"V  c #603134",
"C  c #7D3F41",
"Z  c gray26",
"A  c gray27",
"S  c #464646",
"D  c #494949",
"F  c #535353",
"G  c gray33",
"H  c #585858",
"J  c #5A5A5A",
"K  c gray36",
"L  c #7A4040",
"P  c #724F50",
"I  c #625050",
"U  c #635353",
"Y  c #635D5D",
"T  c #646464",
"R  c gray40",
"E  c #6F6666",
"W  c DimGray",
"Q  c #6D6D6D",
"!  c #7C6666",
"~  c gray46",
"^  c gray49",
"/  c #7E7E7E",
"(  c #8E0606",
")  c #853034",
"_  c #AD3838",
"`  c #8B5E5E",
"'  c #856666",
"]  c #896162",
"[  c #8A6666",
"{  c #8E6868",
"}  c #907979",
"|  c #9F7F7F",
" . c #A26B6B",
".. c #AE6B6B",
"X. c #A57777",
"o. c #BC7272",
"O. c #C16D6D",
"+. c gray51",
"@. c #868686",
"#. c #898989",
"$. c #8B8989",
"%. c gray55",
"&. c gray56",
"*. c #958A8A",
"=. c gray57",
"-. c #949393",
";. c #9F9494",
":. c #AA9292",
">. c gray64",
",. c #A9A9A9",
"<. c gray67",
"1. c #B5B4B4",
"2. c #B7B7B7",
"3. c #CDBABA",
"4. c gray81",
"5. c gray88",
"6. c #E1E1E1",
"7. c #E2E1E1",
"8. c #E4E4E4",
"9. c #E7E7E7",
"0. c gray91",
"q. c #EAEAEA",
"w. c #F1F0F0",
"e. c #F8F6F6",
"r. c #F8F8F8",
"t. c #F9F9F9",
"y. c #FEFEFE",
"u. c gray100",
"i. c None",
/* pixels */
"i.i.i.i.i.i.3 w 5 i.i.i.i.i.i.i.",
"i.i.i.i.9 9 3 : , e e e i.i.i.i.",
"i.i.4 ;               * y i.i.i.",
"i.3 #                     5 i.i.",
"i.#           #.w         & +.i.",
"i.4 =.Q &     3 9.5.9     <.#.i.",
"4 t.u.u.9.T       2.t.A   9.# i.",
", u.u.w.u.u.4.Z     ~ %.  /   D ",
"+ q.u.n c X.3.e.7.=.i 9 5 t Y >.",
"i.-.8.I a j z ( _ O.o... .` ;.i.",
"i.v 1.,.R E ! ' [ { | :.} U W i.",
"i.i.P *.$.@.H K F y , ; A / i.i.",
"i.i.i.C ] m = + + , i J G y i.i.",
"i.i.i.i.c ) N M V n b 0 $ : i.i.",
"i.i.i.i.i.i.l l g s i.g h k x i.",
"i.i.i.i.i.i.i.i.i.i.i.i.i.i.i.i."
};
