/* XPM */
static char *sidux_irc___[] = {
/* columns rows colors chars-per-pixel */
"16 16 130 2",
"   c black",
".  c #010101",
"X  c #020202",
"o  c #060001",
"O  c #050202",
"+  c #040404",
"@  c #060606",
"#  c #070707",
"$  c #0D0102",
"%  c #0A0404",
"&  c #090909",
"*  c gray4",
"=  c gray6",
"-  c #131313",
";  c gray8",
":  c #151515",
">  c #1B1B1B",
",  c #1E1B1B",
"<  c #3D0708",
"1  c #221010",
"2  c #2E1B1B",
"3  c #202020",
"4  c gray13",
"5  c #272727",
"6  c #2A2A2A",
"7  c #2C2C2C",
"8  c #2D2D2D",
"9  c gray18",
"0  c #2F2F2F",
"q  c #342223",
"w  c #3F292B",
"e  c #313131",
"r  c #343434",
"t  c #353535",
"y  c gray21",
"u  c #3B3535",
"i  c gray22",
"p  c gray23",
"a  c #3D3C3C",
"s  c #3F3F3F",
"d  c #4E0000",
"f  c #48080A",
"g  c #4A090B",
"h  c #4D080A",
"j  c #590B0E",
"k  c #4D0F11",
"l  c #6D0000",
"z  c #630C0E",
"x  c #660D0F",
"c  c #6C1A1C",
"v  c #463737",
"b  c #553233",
"n  c #5E3133",
"m  c #5D3536",
"M  c #533E3E",
"N  c #662222",
"B  c #602426",
"V  c #6A2021",
"C  c #7F3031",
"Z  c #733F3F",
"A  c gray26",
"S  c gray27",
"D  c #4F4545",
"F  c #494949",
"G  c gray33",
"H  c gray34",
"J  c #5A5353",
"K  c #5A5A5A",
"L  c #5B5B5B",
"P  c #6B4E4F",
"I  c #704040",
"U  c #665050",
"Y  c #625D5D",
"T  c #765353",
"R  c #646464",
"E  c #6A6666",
"W  c #696868",
"Q  c #6D6D6D",
"!  c #7D6666",
"~  c gray46",
"^  c #7D7C7C",
"/  c #7E7E7E",
"(  c #8B0000",
")  c #A90606",
"_  c #CC3838",
"`  c #985E5E",
"'  c #825F62",
"]  c #8F6666",
"[  c #9A6666",
"{  c #9F7777",
"}  c #A26666",
"|  c #A76767",
" . c #AF6B6B",
".. c #BE6B6B",
"X. c #A57979",
"o. c #B47E7E",
"O. c #D96D6D",
"+. c #D07272",
"@. c gray51",
"#. c gray52",
"$. c #898888",
"%. c #898989",
"&. c gray55",
"*. c gray56",
"=. c #918989",
"-. c gray57",
";. c #949393",
":. c #A49494",
">. c #BC9191",
",. c gray64",
"<. c gray66",
"1. c gray67",
"2. c #B4B3B3",
"3. c #B7B7B7",
"4. c #CBBABA",
"5. c gray81",
"6. c gray88",
"7. c #E1E1E1",
"8. c #E2E1E1",
"9. c #E4E4E4",
"0. c #E7E7E7",
"q. c gray91",
"w. c #EAEAEA",
"e. c gray94",
"r. c #F7F6F6",
"t. c #F8F8F8",
"y. c #F9F9F9",
"u. c #FEFEFE",
"i. c gray100",
"p. c None",
/* pixels */
"p.p.p.p.p.p.4 r 0 p.p.p.p.p.p.p.",
"p.p.p.p.0 0 4 : > r r r p.p.p.p.",
"p.p.5 -               = i p.p.p.",
"p.4 @                     0 p.p.",
"p.@           %.e         * @.p.",
"p.6 -.Q *     4 q.6.0     1.%.p.",
"5 y.i.i.0.R     @ 3.y.S   0.@ p.",
"> i.i.e.i.i.5.A     ~ &.  /   F ",
"  q.i.I N { 4.r.8.&.A 0 6 u Y ,.",
"p.-.8.U d l ( ) _ O.+... .` :.p.",
"p.v 2.<.W ! ] [ } | o.>.X.T W p.",
"p.p.P =.%.#.J L J v 2 1 D / p.p.",
"p.p.p.Z ' M $ O O , a L G i p.p.",
"p.p.p.p.c C V B n m b q % - p.p.",
"p.p.p.p.p.p.x z j g p.< g h k p.",
"p.p.p.p.p.p.p.p.p.p.p.p.p.p.p.p."
};
