/* XPM */
static char *sidux-irc[] = {
/* columns rows colors chars-per-pixel */
"32 32 94 2",
"   c #000000",
".  c #030609",
"X  c #06090C",
"o  c #0B0B0C",
"O  c #070D10",
"+  c #090E13",
"@  c #0C1116",
"#  c #0D141A",
"$  c #131313",
"%  c #12161B",
"&  c #14181C",
"*  c gray10",
"=  c #0E1620",
"-  c #0F1823",
";  c #141B22",
":  c #131C29",
">  c #002229",
",  c #16202B",
"<  c #1C2124",
"1  c #19222B",
"2  c #1E282F",
"3  c #172331",
"4  c #1A2632",
"5  c #1C2A35",
"6  c #1D2C3B",
"7  c #232323",
"8  c #232629",
"9  c #26282A",
"0  c gray17",
"q  c #242C34",
"w  c #212E3C",
"e  c #292E32",
"r  c #273035",
"t  c #343434",
"y  c #3B3B3B",
"u  c #1D2D40",
"i  c #213344",
"p  c #23354B",
"a  c #233A4D",
"s  c #29394C",
"d  c #243E52",
"f  c #2A3D55",
"g  c #293E58",
"h  c #353A40",
"j  c #393E42",
"k  c #26455C",
"l  c #2C425D",
"z  c #3A4146",
"x  c #3C454D",
"c  c #32445B",
"v  c #3C4A53",
"b  c #3C4E59",
"n  c #3C515E",
"m  c #274E68",
"M  c #2C4560",
"N  c #2F4965",
"B  c #304967",
"V  c #324B6A",
"C  c #3C5362",
"Z  c #355173",
"A  c #395679",
"S  c #3C5A7E",
"D  c #434343",
"F  c #494A4A",
"G  c #525252",
"H  c gray36",
"J  c #40546B",
"K  c #5A5D66",
"L  c #656565",
"P  c #6B6B6B",
"I  c #717171",
"U  c #7B7B7B",
"Y  c #3D5D84",
"T  c #41628B",
"R  c #446690",
"E  c #476D98",
"W  c #4A709E",
"Q  c #838383",
"!  c #8C8C8C",
"~  c #949494",
"^  c #9C9C9C",
"/  c #A3A3A3",
"(  c #AAAAAA",
")  c #B3B3B3",
"_  c #BCBCBC",
"`  c #C3C3C3",
"'  c #CBCBCB",
"]  c #D2D2D2",
"[  c #DBDBDB",
"{  c #E3E3E3",
"}  c #EBEBEB",
"|  c #F2F2F2",
" . c gray100",
".. c None",
/* pixels */
"................................................................",
"......................                ..........................",
"................    7 H ~ ) _ _ ( ^ G       ....................",
"............    L _ ] ' ` _ ` _ ` ` ' ' ^ F     ................",
"..........  H ) _ _ ' ' ' ' ' ' ' ' ' ' ' ' ) G     ............",
"......    I _ ( _ ] { } } | } | } } } { { { ` _ Q     ..........",
"......  L ( / ) { } } } } } } } { { { { { { _ ( ( ^ *   ........",
"....  D / ~ / ] } } } } } } { { { [ [ [ [ { ) ^ ~ ^ / X   ......",
"..    U ! ! ^ { { { { } } { [ [ [ [ [ [ { } ) ~ ! ~ ~ P     ....",
"..  8 Q Q Q ^ { { { { { [ ] ] ] ' ] ] [ [ [ / ! Q Q Q ! 7   ....",
"    G U U U ^ [ [ [ [ ' ~ ! ! ! ! ! ! ! ! ! Q U U U U U P     ..",
"    G P P I ! [ [ ] [ ' ^ ~ ~ ~ ~ ~ ~ ! Q P P I I I P I U *   ..",
"    D L L L ! ] ] ] ] ] ] ' ] ' ] ] ] ' / ! P L L L L L L y   ..",
"      $ y G I ` ' ' ' ' ' ' ' ' ] [ ] ] ] _ U H H H H H H y   ..",
"        . o y ~ ' ' ' ' ' ' ' ' ' ' ] ' ' ] ! H G G G G G 0     ",
"      o # ; @ 0 ~ ` ` ' ' ] ' ] ] ' ' ' ' ` _ L F F F D F *     ",
"      . & 1 w r 9 G ! ( ) ) _ _ _ ' ' ' ' ' _ L y 0 7 * o       ",
"        X 1 5 t a 5 2 0 q q q 9 8 D ` ` ` _ ) y   . O @ @ @ .   ",
"+ .       . 0 y z x v v v b b n C F ` ' ` ` _ z m k a i 5 #   ..",
"> # .     o G / ( ( ( ) ) ( ) ) ( ` ] ] ' ' ) y k d i w 1     ..",
"..: : X   $ W ] ] [ [ [ { { { { { [ [ ] ] ' ^ 0 i 6 4 &       ..",
"..  5 3 + $ Q ] ] [ { { { { { } { { [ [ ] ] P < ; % @ .     ....",
"....3 i 6 < U ] [ [ { } } | | | } { { [ [ _ t X             ....",
"......u g q I [ [ { } } |  .| | | } { [ ( D $             ......",
"........: p 0 t y t y y y y y y y y y t 7 $         $ o ........",
"..........  6 c f s i w q 9 : ; % % % @ + + .       0 F   ......",
"............  p Y R Y A Z N l g s p u u 6 4 ; @ .   . t t ......",
"................  M Y E W T Y S Z V B B g p p u 6 , # @ y K 8   ",
"......................  3 Z Z Z Z V f -     . p B Z S Y Y S C . ",
"................................................................",
"................................................................",
"................................................................"
};
