/* XPM */
static char *sidux-irc[] = {
/* columns rows colors chars-per-pixel */
"32 32 85 1",
"  c #000000",
". c #040608",
"X c #06090C",
"o c #0A0C0D",
"O c #070C11",
"+ c #090D11",
"@ c #0C1116",
"# c #0E141A",
"$ c #131414",
"% c #10171C",
"& c #191919",
"* c #101720",
"= c #141C25",
"- c #141D2A",
"; c #1D1F23",
": c #16212C",
"> c #19242D",
", c #172331",
"< c #1A2635",
"1 c #1B2834",
"2 c #1C2B3A",
"3 c #242424",
"4 c #232628",
"5 c #272B2F",
"6 c #2B2B2B",
"7 c #272F34",
"8 c #23323B",
"9 c #343434",
"0 c #3D3D3D",
"q c #1E2E41",
"w c #1C3A4D",
"e c #1C3C50",
"r c #203244",
"t c #233449",
"y c #24394D",
"u c #263A51",
"i c #283A51",
"p c #303D46",
"a c #383D42",
"s c #1F445A",
"d c #254459",
"f c #2B415B",
"g c #394757",
"h c #274C65",
"j c #2E4562",
"k c #215070",
"l c #255778",
"z c #295775",
"x c #304966",
"c c #334C6C",
"v c #344F70",
"b c #35506F",
"n c #365172",
"m c #3A5779",
"M c #3A597D",
"N c #444444",
"B c #474849",
"V c #494A4A",
"C c #4D4F50",
"Z c #4E5051",
"A c #535353",
"S c #5B5C5C",
"D c #636363",
"F c #6B6B6B",
"G c #737373",
"H c #7A7A7A",
"J c #3F5E86",
"K c #41638B",
"L c #476C98",
"P c #848484",
"I c #8C8C8C",
"U c #949494",
"Y c #9B9B9B",
"T c #A4A4A4",
"R c #ACACAC",
"E c #B4B4B4",
"W c #BBBBBB",
"Q c #C4C4C4",
"! c #CCCCCC",
"~ c #D2D2D2",
"^ c #DCDCDC",
"/ c #E3E3E3",
"( c #EAEAEA",
") c gray100",
"_ c None",
/* pixels */
"________________________________",
"_____________        ___________",
"__________   AUEWWEUF3  ________",
"________  NUQ!QQWWQQQ~QF  ______",
"______  BWQWQQQQQQQQQQQQED  ____",
"_____  GWEQ!^//(/(/////~WEH  ___",
"____ $URRQ/(((((((/////^ETTF  __",
"___  YYYE/(((((((////^/^RUUYA __",
"__  SUIYQ(/(((//^^^^^^/^TIIIP  _",
"__ &IPPU~//////^^^^^^/(^YPPPH9 _",
"_  DHHHU~^^/^EYYYYYYYYYUPHGHGS  ",
"_ $HGGFI~^^^^UIIPIIPHGGGFFFFFS  ",
"_ 9FDDFH!^~^~QEEEEERYUPDDDDDDB  ",
"_ 9SSSSFW!~~!~!~~~~^^~EPSAS0&   ",
"  3AAAASU!!~!!!!!~~~~~~EF6o..   ",
"  $BBBBBDE!!!~~!~!!!!QQWB;>=%   ",
"   o&369NDR!!~~~!!QQWWWWF82>X   ",
"_ ooXX.  X39NSSSDSFRQQQWH72+    ",
"_ +:1rydhzlksweeew8D!QQQI5X   .X",
"_  %>2rpBVVVCCCCZZAY~!QQU3   .#>",
"_   #:10WQ!Q!!~!~!~~~~!QF&  X=-_",
"__   +$0!~^^^^^//^^^~~~!N+ O:2#_",
"__     0!~^^//////^^^~~E9+=<q,__",
"___    0!^^^^(((((//^^~A;qufq___",
"____X$ 9EQQ!~~^^^~!!QYS4yxj-____",
"___ B6 $46666666666664>fJi _____",
"___60  .+#*--<<<8qrifcKKi ______",
" &Sa#*-8tt2rijjxnMKLLKx ________",
" gmKKJMcy+  #yjxcvc< ___________",
"________________________________",
"________________________________",
"________________________________"
};
